<mxfile host="Electron" modified="2024-03-13T20:18:32.081Z" agent="Mozilla/5.0 (X11; Linux x86_64) AppleWebKit/537.36 (KHTML, like Gecko) draw.io/24.0.4 Chrome/120.0.6099.109 Electron/28.1.0 Safari/537.36" etag="yssuW3GwyepCSpxciOcC" version="24.0.4" type="device">
  <diagram name="Page-1" id="xD801_ucFq414uZnRlKG">
    <mxGraphModel dx="3931" dy="2723" grid="0" gridSize="10" guides="1" tooltips="1" connect="1" arrows="1" fold="1" page="1" pageScale="1" pageWidth="1100" pageHeight="850" math="0" shadow="0">
      <root>
        <mxCell id="0" />
        <mxCell id="1" parent="0" />
        <mxCell id="5cUxGQwEymCMh7XVlLyC-59" value="CONFLICTO" style="whiteSpace=wrap;html=1;align=center;" parent="1" vertex="1">
          <mxGeometry x="965" y="770" width="100" height="40" as="geometry" />
        </mxCell>
        <mxCell id="5cUxGQwEymCMh7XVlLyC-61" value="" style="verticalLabelPosition=bottom;verticalAlign=top;html=1;shape=mxgraph.basic.acute_triangle;dx=0.5;rotation=-180;" parent="1" vertex="1">
          <mxGeometry x="965" y="870" width="100" height="70" as="geometry" />
        </mxCell>
        <mxCell id="5cUxGQwEymCMh7XVlLyC-62" value="RELIGIOSO" style="whiteSpace=wrap;html=1;align=center;" parent="1" vertex="1">
          <mxGeometry x="905" y="1000" width="100" height="40" as="geometry" />
        </mxCell>
        <mxCell id="5cUxGQwEymCMh7XVlLyC-63" value="ECONOMICO" style="whiteSpace=wrap;html=1;align=center;" parent="1" vertex="1">
          <mxGeometry x="1025" y="1000" width="100" height="40" as="geometry" />
        </mxCell>
        <mxCell id="5cUxGQwEymCMh7XVlLyC-64" value="" style="endArrow=none;html=1;rounded=0;entryX=0.5;entryY=1;entryDx=0;entryDy=0;exitX=0.5;exitY=1;exitDx=0;exitDy=0;exitPerimeter=0;" parent="1" source="5cUxGQwEymCMh7XVlLyC-67" target="5cUxGQwEymCMh7XVlLyC-59" edge="1">
          <mxGeometry width="50" height="50" relative="1" as="geometry">
            <mxPoint x="1021" y="910" as="sourcePoint" />
            <mxPoint x="1071" y="860" as="targetPoint" />
          </mxGeometry>
        </mxCell>
        <mxCell id="5cUxGQwEymCMh7XVlLyC-65" value="" style="endArrow=none;html=1;rounded=0;entryX=0;entryY=0;entryDx=75;entryDy=35;exitX=0.5;exitY=0;exitDx=0;exitDy=0;entryPerimeter=0;" parent="1" source="5cUxGQwEymCMh7XVlLyC-62" target="5cUxGQwEymCMh7XVlLyC-61" edge="1">
          <mxGeometry width="50" height="50" relative="1" as="geometry">
            <mxPoint x="1025" y="880" as="sourcePoint" />
            <mxPoint x="1025" y="820" as="targetPoint" />
          </mxGeometry>
        </mxCell>
        <mxCell id="5cUxGQwEymCMh7XVlLyC-66" value="" style="endArrow=none;html=1;rounded=0;exitX=0.5;exitY=0;exitDx=0;exitDy=0;entryX=0;entryY=0;entryDx=25;entryDy=35;entryPerimeter=0;" parent="1" source="5cUxGQwEymCMh7XVlLyC-63" target="5cUxGQwEymCMh7XVlLyC-61" edge="1">
          <mxGeometry width="50" height="50" relative="1" as="geometry">
            <mxPoint x="955" y="1010" as="sourcePoint" />
            <mxPoint x="1068" y="907" as="targetPoint" />
          </mxGeometry>
        </mxCell>
        <mxCell id="5cUxGQwEymCMh7XVlLyC-68" value="" style="endArrow=none;html=1;rounded=0;entryX=0.5;entryY=1;entryDx=0;entryDy=0;exitX=0.5;exitY=1;exitDx=0;exitDy=0;exitPerimeter=0;" parent="1" source="5cUxGQwEymCMh7XVlLyC-61" target="5cUxGQwEymCMh7XVlLyC-67" edge="1">
          <mxGeometry width="50" height="50" relative="1" as="geometry">
            <mxPoint x="1015" y="870" as="sourcePoint" />
            <mxPoint x="1015" y="810" as="targetPoint" />
          </mxGeometry>
        </mxCell>
        <mxCell id="5cUxGQwEymCMh7XVlLyC-67" value="" style="ellipse;whiteSpace=wrap;html=1;aspect=fixed;" parent="1" vertex="1">
          <mxGeometry x="1005" y="830" width="20" height="20" as="geometry" />
        </mxCell>
        <mxCell id="HRbyK_xEVIvlZvp6VBce-1" value="TERRITORIAL" style="whiteSpace=wrap;html=1;align=center;" parent="1" vertex="1">
          <mxGeometry x="785" y="1000" width="100" height="40" as="geometry" />
        </mxCell>
        <mxCell id="HRbyK_xEVIvlZvp6VBce-2" value="RACIAL" style="whiteSpace=wrap;html=1;align=center;" parent="1" vertex="1">
          <mxGeometry x="1145" y="1000" width="100" height="40" as="geometry" />
        </mxCell>
        <mxCell id="HRbyK_xEVIvlZvp6VBce-3" value="" style="endArrow=none;html=1;rounded=0;exitX=0.5;exitY=0;exitDx=0;exitDy=0;entryX=0;entryY=0;entryDx=75;entryDy=35;entryPerimeter=0;" parent="1" source="HRbyK_xEVIvlZvp6VBce-1" target="5cUxGQwEymCMh7XVlLyC-61" edge="1">
          <mxGeometry width="50" height="50" relative="1" as="geometry">
            <mxPoint x="1129" y="882" as="sourcePoint" />
            <mxPoint x="1179" y="832" as="targetPoint" />
          </mxGeometry>
        </mxCell>
        <mxCell id="HRbyK_xEVIvlZvp6VBce-4" value="" style="endArrow=none;html=1;rounded=0;exitX=0;exitY=0;exitDx=25;exitDy=35;exitPerimeter=0;entryX=0.5;entryY=0;entryDx=0;entryDy=0;" parent="1" source="5cUxGQwEymCMh7XVlLyC-61" target="HRbyK_xEVIvlZvp6VBce-2" edge="1">
          <mxGeometry width="50" height="50" relative="1" as="geometry">
            <mxPoint x="1129" y="882" as="sourcePoint" />
            <mxPoint x="1179" y="832" as="targetPoint" />
          </mxGeometry>
        </mxCell>
        <mxCell id="HRbyK_xEVIvlZvp6VBce-7" value="" style="endArrow=none;html=1;rounded=0;exitX=1;exitY=0;exitDx=0;exitDy=0;entryX=0;entryY=0;entryDx=0;entryDy=0;" parent="1" edge="1">
          <mxGeometry width="50" height="50" relative="1" as="geometry">
            <mxPoint x="885" y="940" as="sourcePoint" />
            <mxPoint x="1145" y="940" as="targetPoint" />
            <Array as="points">
              <mxPoint x="1015" y="980" />
            </Array>
          </mxGeometry>
        </mxCell>
        <mxCell id="HRbyK_xEVIvlZvp6VBce-8" value="Conflictos" style="shape=table;startSize=30;container=1;collapsible=1;childLayout=tableLayout;fixedRows=1;rowLines=0;fontStyle=1;align=center;resizeLast=1;html=1;" parent="1" vertex="1">
          <mxGeometry x="590" y="-26" width="180" height="150" as="geometry" />
        </mxCell>
        <mxCell id="HRbyK_xEVIvlZvp6VBce-9" value="" style="shape=tableRow;horizontal=0;startSize=0;swimlaneHead=0;swimlaneBody=0;fillColor=none;collapsible=0;dropTarget=0;points=[[0,0.5],[1,0.5]];portConstraint=eastwest;top=0;left=0;right=0;bottom=1;" parent="HRbyK_xEVIvlZvp6VBce-8" vertex="1">
          <mxGeometry y="30" width="180" height="30" as="geometry" />
        </mxCell>
        <mxCell id="HRbyK_xEVIvlZvp6VBce-10" value="PK" style="shape=partialRectangle;connectable=0;fillColor=none;top=0;left=0;bottom=0;right=0;fontStyle=1;overflow=hidden;whiteSpace=wrap;html=1;" parent="HRbyK_xEVIvlZvp6VBce-9" vertex="1">
          <mxGeometry width="30" height="30" as="geometry">
            <mxRectangle width="30" height="30" as="alternateBounds" />
          </mxGeometry>
        </mxCell>
        <mxCell id="HRbyK_xEVIvlZvp6VBce-11" value="codigo" style="shape=partialRectangle;connectable=0;fillColor=none;top=0;left=0;bottom=0;right=0;align=left;spacingLeft=6;fontStyle=5;overflow=hidden;whiteSpace=wrap;html=1;" parent="HRbyK_xEVIvlZvp6VBce-9" vertex="1">
          <mxGeometry x="30" width="150" height="30" as="geometry">
            <mxRectangle width="150" height="30" as="alternateBounds" />
          </mxGeometry>
        </mxCell>
        <mxCell id="HRbyK_xEVIvlZvp6VBce-12" value="" style="shape=tableRow;horizontal=0;startSize=0;swimlaneHead=0;swimlaneBody=0;fillColor=none;collapsible=0;dropTarget=0;points=[[0,0.5],[1,0.5]];portConstraint=eastwest;top=0;left=0;right=0;bottom=0;" parent="HRbyK_xEVIvlZvp6VBce-8" vertex="1">
          <mxGeometry y="60" width="180" height="30" as="geometry" />
        </mxCell>
        <mxCell id="HRbyK_xEVIvlZvp6VBce-13" value="" style="shape=partialRectangle;connectable=0;fillColor=none;top=0;left=0;bottom=0;right=0;editable=1;overflow=hidden;whiteSpace=wrap;html=1;" parent="HRbyK_xEVIvlZvp6VBce-12" vertex="1">
          <mxGeometry width="30" height="30" as="geometry">
            <mxRectangle width="30" height="30" as="alternateBounds" />
          </mxGeometry>
        </mxCell>
        <mxCell id="HRbyK_xEVIvlZvp6VBce-14" value="nombre" style="shape=partialRectangle;connectable=0;fillColor=none;top=0;left=0;bottom=0;right=0;align=left;spacingLeft=6;overflow=hidden;whiteSpace=wrap;html=1;" parent="HRbyK_xEVIvlZvp6VBce-12" vertex="1">
          <mxGeometry x="30" width="150" height="30" as="geometry">
            <mxRectangle width="150" height="30" as="alternateBounds" />
          </mxGeometry>
        </mxCell>
        <mxCell id="HRbyK_xEVIvlZvp6VBce-15" value="" style="shape=tableRow;horizontal=0;startSize=0;swimlaneHead=0;swimlaneBody=0;fillColor=none;collapsible=0;dropTarget=0;points=[[0,0.5],[1,0.5]];portConstraint=eastwest;top=0;left=0;right=0;bottom=0;" parent="HRbyK_xEVIvlZvp6VBce-8" vertex="1">
          <mxGeometry y="90" width="180" height="30" as="geometry" />
        </mxCell>
        <mxCell id="HRbyK_xEVIvlZvp6VBce-16" value="" style="shape=partialRectangle;connectable=0;fillColor=none;top=0;left=0;bottom=0;right=0;editable=1;overflow=hidden;whiteSpace=wrap;html=1;" parent="HRbyK_xEVIvlZvp6VBce-15" vertex="1">
          <mxGeometry width="30" height="30" as="geometry">
            <mxRectangle width="30" height="30" as="alternateBounds" />
          </mxGeometry>
        </mxCell>
        <mxCell id="HRbyK_xEVIvlZvp6VBce-17" value="muertos" style="shape=partialRectangle;connectable=0;fillColor=none;top=0;left=0;bottom=0;right=0;align=left;spacingLeft=6;overflow=hidden;whiteSpace=wrap;html=1;" parent="HRbyK_xEVIvlZvp6VBce-15" vertex="1">
          <mxGeometry x="30" width="150" height="30" as="geometry">
            <mxRectangle width="150" height="30" as="alternateBounds" />
          </mxGeometry>
        </mxCell>
        <mxCell id="HRbyK_xEVIvlZvp6VBce-18" value="" style="shape=tableRow;horizontal=0;startSize=0;swimlaneHead=0;swimlaneBody=0;fillColor=none;collapsible=0;dropTarget=0;points=[[0,0.5],[1,0.5]];portConstraint=eastwest;top=0;left=0;right=0;bottom=0;" parent="HRbyK_xEVIvlZvp6VBce-8" vertex="1">
          <mxGeometry y="120" width="180" height="30" as="geometry" />
        </mxCell>
        <mxCell id="HRbyK_xEVIvlZvp6VBce-19" value="" style="shape=partialRectangle;connectable=0;fillColor=none;top=0;left=0;bottom=0;right=0;editable=1;overflow=hidden;whiteSpace=wrap;html=1;" parent="HRbyK_xEVIvlZvp6VBce-18" vertex="1">
          <mxGeometry width="30" height="30" as="geometry">
            <mxRectangle width="30" height="30" as="alternateBounds" />
          </mxGeometry>
        </mxCell>
        <mxCell id="HRbyK_xEVIvlZvp6VBce-20" value="heridos" style="shape=partialRectangle;connectable=0;fillColor=none;top=0;left=0;bottom=0;right=0;align=left;spacingLeft=6;overflow=hidden;whiteSpace=wrap;html=1;" parent="HRbyK_xEVIvlZvp6VBce-18" vertex="1">
          <mxGeometry x="30" width="150" height="30" as="geometry">
            <mxRectangle width="150" height="30" as="alternateBounds" />
          </mxGeometry>
        </mxCell>
        <mxCell id="HRbyK_xEVIvlZvp6VBce-21" value="Paises" style="shape=table;startSize=30;container=1;collapsible=1;childLayout=tableLayout;fixedRows=1;rowLines=0;fontStyle=1;align=center;resizeLast=1;html=1;" parent="1" vertex="1">
          <mxGeometry x="1030" y="-216" width="180" height="90" as="geometry" />
        </mxCell>
        <mxCell id="HRbyK_xEVIvlZvp6VBce-22" value="" style="shape=tableRow;horizontal=0;startSize=0;swimlaneHead=0;swimlaneBody=0;fillColor=none;collapsible=0;dropTarget=0;points=[[0,0.5],[1,0.5]];portConstraint=eastwest;top=0;left=0;right=0;bottom=1;" parent="HRbyK_xEVIvlZvp6VBce-21" vertex="1">
          <mxGeometry y="30" width="180" height="30" as="geometry" />
        </mxCell>
        <mxCell id="HRbyK_xEVIvlZvp6VBce-23" value="PK" style="shape=partialRectangle;connectable=0;fillColor=none;top=0;left=0;bottom=0;right=0;fontStyle=1;overflow=hidden;whiteSpace=wrap;html=1;" parent="HRbyK_xEVIvlZvp6VBce-22" vertex="1">
          <mxGeometry width="30" height="30" as="geometry">
            <mxRectangle width="30" height="30" as="alternateBounds" />
          </mxGeometry>
        </mxCell>
        <mxCell id="HRbyK_xEVIvlZvp6VBce-24" value="codigo" style="shape=partialRectangle;connectable=0;fillColor=none;top=0;left=0;bottom=0;right=0;align=left;spacingLeft=6;fontStyle=5;overflow=hidden;whiteSpace=wrap;html=1;" parent="HRbyK_xEVIvlZvp6VBce-22" vertex="1">
          <mxGeometry x="30" width="150" height="30" as="geometry">
            <mxRectangle width="150" height="30" as="alternateBounds" />
          </mxGeometry>
        </mxCell>
        <mxCell id="HRbyK_xEVIvlZvp6VBce-25" value="" style="shape=tableRow;horizontal=0;startSize=0;swimlaneHead=0;swimlaneBody=0;fillColor=none;collapsible=0;dropTarget=0;points=[[0,0.5],[1,0.5]];portConstraint=eastwest;top=0;left=0;right=0;bottom=0;" parent="HRbyK_xEVIvlZvp6VBce-21" vertex="1">
          <mxGeometry y="60" width="180" height="30" as="geometry" />
        </mxCell>
        <mxCell id="HRbyK_xEVIvlZvp6VBce-26" value="" style="shape=partialRectangle;connectable=0;fillColor=none;top=0;left=0;bottom=0;right=0;editable=1;overflow=hidden;whiteSpace=wrap;html=1;" parent="HRbyK_xEVIvlZvp6VBce-25" vertex="1">
          <mxGeometry width="30" height="30" as="geometry">
            <mxRectangle width="30" height="30" as="alternateBounds" />
          </mxGeometry>
        </mxCell>
        <mxCell id="HRbyK_xEVIvlZvp6VBce-27" value="nombre" style="shape=partialRectangle;connectable=0;fillColor=none;top=0;left=0;bottom=0;right=0;align=left;spacingLeft=6;overflow=hidden;whiteSpace=wrap;html=1;" parent="HRbyK_xEVIvlZvp6VBce-25" vertex="1">
          <mxGeometry x="30" width="150" height="30" as="geometry">
            <mxRectangle width="150" height="30" as="alternateBounds" />
          </mxGeometry>
        </mxCell>
        <mxCell id="HRbyK_xEVIvlZvp6VBce-38" value="Conflictos_Paises" style="shape=table;startSize=30;container=1;collapsible=1;childLayout=tableLayout;fixedRows=1;rowLines=0;fontStyle=1;align=center;resizeLast=1;html=1;whiteSpace=wrap;" parent="1" vertex="1">
          <mxGeometry x="810" y="-216" width="180" height="90" as="geometry" />
        </mxCell>
        <mxCell id="HRbyK_xEVIvlZvp6VBce-39" value="" style="shape=tableRow;horizontal=0;startSize=0;swimlaneHead=0;swimlaneBody=0;fillColor=none;collapsible=0;dropTarget=0;points=[[0,0.5],[1,0.5]];portConstraint=eastwest;top=0;left=0;right=0;bottom=0;html=1;" parent="HRbyK_xEVIvlZvp6VBce-38" vertex="1">
          <mxGeometry y="30" width="180" height="30" as="geometry" />
        </mxCell>
        <mxCell id="HRbyK_xEVIvlZvp6VBce-40" value="PK,FK1" style="shape=partialRectangle;connectable=0;fillColor=none;top=0;left=0;bottom=0;right=0;fontStyle=1;overflow=hidden;html=1;whiteSpace=wrap;" parent="HRbyK_xEVIvlZvp6VBce-39" vertex="1">
          <mxGeometry width="60" height="30" as="geometry">
            <mxRectangle width="60" height="30" as="alternateBounds" />
          </mxGeometry>
        </mxCell>
        <mxCell id="HRbyK_xEVIvlZvp6VBce-41" value="codigo_conflicto" style="shape=partialRectangle;connectable=0;fillColor=none;top=0;left=0;bottom=0;right=0;align=left;spacingLeft=6;fontStyle=5;overflow=hidden;html=1;whiteSpace=wrap;" parent="HRbyK_xEVIvlZvp6VBce-39" vertex="1">
          <mxGeometry x="60" width="120" height="30" as="geometry">
            <mxRectangle width="120" height="30" as="alternateBounds" />
          </mxGeometry>
        </mxCell>
        <mxCell id="HRbyK_xEVIvlZvp6VBce-42" value="" style="shape=tableRow;horizontal=0;startSize=0;swimlaneHead=0;swimlaneBody=0;fillColor=none;collapsible=0;dropTarget=0;points=[[0,0.5],[1,0.5]];portConstraint=eastwest;top=0;left=0;right=0;bottom=1;html=1;" parent="HRbyK_xEVIvlZvp6VBce-38" vertex="1">
          <mxGeometry y="60" width="180" height="30" as="geometry" />
        </mxCell>
        <mxCell id="HRbyK_xEVIvlZvp6VBce-43" value="PK,FK2" style="shape=partialRectangle;connectable=0;fillColor=none;top=0;left=0;bottom=0;right=0;fontStyle=1;overflow=hidden;html=1;whiteSpace=wrap;" parent="HRbyK_xEVIvlZvp6VBce-42" vertex="1">
          <mxGeometry width="60" height="30" as="geometry">
            <mxRectangle width="60" height="30" as="alternateBounds" />
          </mxGeometry>
        </mxCell>
        <mxCell id="HRbyK_xEVIvlZvp6VBce-44" value="codigo_pais" style="shape=partialRectangle;connectable=0;fillColor=none;top=0;left=0;bottom=0;right=0;align=left;spacingLeft=6;fontStyle=5;overflow=hidden;html=1;whiteSpace=wrap;" parent="HRbyK_xEVIvlZvp6VBce-42" vertex="1">
          <mxGeometry x="60" width="120" height="30" as="geometry">
            <mxRectangle width="120" height="30" as="alternateBounds" />
          </mxGeometry>
        </mxCell>
        <mxCell id="HRbyK_xEVIvlZvp6VBce-53" value="afectar" style="shape=rhombus;perimeter=rhombusPerimeter;whiteSpace=wrap;html=1;align=center;" parent="1" vertex="1">
          <mxGeometry x="1185" y="760" width="120" height="60" as="geometry" />
        </mxCell>
        <mxCell id="HRbyK_xEVIvlZvp6VBce-55" value="PAIS" style="whiteSpace=wrap;html=1;align=center;" parent="1" vertex="1">
          <mxGeometry x="1425" y="770" width="100" height="40" as="geometry" />
        </mxCell>
        <mxCell id="HRbyK_xEVIvlZvp6VBce-56" value="" style="endArrow=classic;html=1;rounded=0;entryX=0;entryY=0.5;entryDx=0;entryDy=0;exitX=1;exitY=0.5;exitDx=0;exitDy=0;" parent="1" source="HRbyK_xEVIvlZvp6VBce-53" target="HRbyK_xEVIvlZvp6VBce-55" edge="1">
          <mxGeometry width="50" height="50" relative="1" as="geometry">
            <mxPoint x="1102" y="857" as="sourcePoint" />
            <mxPoint x="1152" y="807" as="targetPoint" />
          </mxGeometry>
        </mxCell>
        <mxCell id="HRbyK_xEVIvlZvp6VBce-57" value="" style="endArrow=classic;html=1;rounded=0;entryX=1;entryY=0.5;entryDx=0;entryDy=0;exitX=0;exitY=0.5;exitDx=0;exitDy=0;" parent="1" source="HRbyK_xEVIvlZvp6VBce-53" target="5cUxGQwEymCMh7XVlLyC-59" edge="1">
          <mxGeometry width="50" height="50" relative="1" as="geometry">
            <mxPoint x="1102" y="857" as="sourcePoint" />
            <mxPoint x="1152" y="807" as="targetPoint" />
          </mxGeometry>
        </mxCell>
        <mxCell id="HRbyK_xEVIvlZvp6VBce-58" value="( 0, N )" style="text;html=1;align=center;verticalAlign=middle;resizable=0;points=[];autosize=1;strokeColor=none;fillColor=none;" parent="1" vertex="1">
          <mxGeometry x="1065" y="790" width="55" height="26" as="geometry" />
        </mxCell>
        <mxCell id="HRbyK_xEVIvlZvp6VBce-59" value="( 1, N )" style="text;html=1;align=center;verticalAlign=middle;resizable=0;points=[];autosize=1;strokeColor=none;fillColor=none;" parent="1" vertex="1">
          <mxGeometry x="1370" y="790" width="55" height="26" as="geometry" />
        </mxCell>
        <mxCell id="HRbyK_xEVIvlZvp6VBce-60" value="N : M" style="text;html=1;align=center;verticalAlign=middle;resizable=0;points=[];autosize=1;strokeColor=none;fillColor=none;" parent="1" vertex="1">
          <mxGeometry x="1221.5" y="734" width="47" height="26" as="geometry" />
        </mxCell>
        <mxCell id="HRbyK_xEVIvlZvp6VBce-61" value="" style="endArrow=classic;html=1;rounded=0;exitX=1;exitY=0.5;exitDx=0;exitDy=0;entryX=0;entryY=0.5;entryDx=0;entryDy=0;" parent="1" source="HRbyK_xEVIvlZvp6VBce-9" target="HRbyK_xEVIvlZvp6VBce-39" edge="1">
          <mxGeometry width="50" height="50" relative="1" as="geometry">
            <mxPoint x="770" y="-171" as="sourcePoint" />
            <mxPoint x="810" y="-171" as="targetPoint" />
            <Array as="points">
              <mxPoint x="790" y="19" />
              <mxPoint x="790" y="-171" />
            </Array>
          </mxGeometry>
        </mxCell>
        <mxCell id="HRbyK_xEVIvlZvp6VBce-62" value="" style="endArrow=classic;html=1;rounded=0;entryX=1;entryY=0.5;entryDx=0;entryDy=0;exitX=0;exitY=0.5;exitDx=0;exitDy=0;" parent="1" source="HRbyK_xEVIvlZvp6VBce-22" target="HRbyK_xEVIvlZvp6VBce-42" edge="1">
          <mxGeometry width="50" height="50" relative="1" as="geometry">
            <mxPoint x="937" y="-106" as="sourcePoint" />
            <mxPoint x="987" y="-156" as="targetPoint" />
            <Array as="points">
              <mxPoint x="1010" y="-171" />
              <mxPoint x="1010" y="-141" />
            </Array>
          </mxGeometry>
        </mxCell>
        <mxCell id="HRbyK_xEVIvlZvp6VBce-64" value="Regiones" style="shape=table;startSize=30;container=1;collapsible=1;childLayout=tableLayout;fixedRows=1;rowLines=0;fontStyle=1;align=center;resizeLast=1;html=1;" parent="1" vertex="1">
          <mxGeometry x="1030" y="-86" width="180" height="90" as="geometry" />
        </mxCell>
        <mxCell id="HRbyK_xEVIvlZvp6VBce-65" value="" style="shape=tableRow;horizontal=0;startSize=0;swimlaneHead=0;swimlaneBody=0;fillColor=none;collapsible=0;dropTarget=0;points=[[0,0.5],[1,0.5]];portConstraint=eastwest;top=0;left=0;right=0;bottom=1;" parent="HRbyK_xEVIvlZvp6VBce-64" vertex="1">
          <mxGeometry y="30" width="180" height="30" as="geometry" />
        </mxCell>
        <mxCell id="HRbyK_xEVIvlZvp6VBce-66" value="PK" style="shape=partialRectangle;connectable=0;fillColor=none;top=0;left=0;bottom=0;right=0;fontStyle=1;overflow=hidden;whiteSpace=wrap;html=1;" parent="HRbyK_xEVIvlZvp6VBce-65" vertex="1">
          <mxGeometry width="30" height="30" as="geometry">
            <mxRectangle width="30" height="30" as="alternateBounds" />
          </mxGeometry>
        </mxCell>
        <mxCell id="HRbyK_xEVIvlZvp6VBce-67" value="codigo" style="shape=partialRectangle;connectable=0;fillColor=none;top=0;left=0;bottom=0;right=0;align=left;spacingLeft=6;fontStyle=5;overflow=hidden;whiteSpace=wrap;html=1;" parent="HRbyK_xEVIvlZvp6VBce-65" vertex="1">
          <mxGeometry x="30" width="150" height="30" as="geometry">
            <mxRectangle width="150" height="30" as="alternateBounds" />
          </mxGeometry>
        </mxCell>
        <mxCell id="HRbyK_xEVIvlZvp6VBce-68" value="" style="shape=tableRow;horizontal=0;startSize=0;swimlaneHead=0;swimlaneBody=0;fillColor=none;collapsible=0;dropTarget=0;points=[[0,0.5],[1,0.5]];portConstraint=eastwest;top=0;left=0;right=0;bottom=0;" parent="HRbyK_xEVIvlZvp6VBce-64" vertex="1">
          <mxGeometry y="60" width="180" height="30" as="geometry" />
        </mxCell>
        <mxCell id="HRbyK_xEVIvlZvp6VBce-69" value="" style="shape=partialRectangle;connectable=0;fillColor=none;top=0;left=0;bottom=0;right=0;editable=1;overflow=hidden;whiteSpace=wrap;html=1;" parent="HRbyK_xEVIvlZvp6VBce-68" vertex="1">
          <mxGeometry width="30" height="30" as="geometry">
            <mxRectangle width="30" height="30" as="alternateBounds" />
          </mxGeometry>
        </mxCell>
        <mxCell id="HRbyK_xEVIvlZvp6VBce-70" value="nombre" style="shape=partialRectangle;connectable=0;fillColor=none;top=0;left=0;bottom=0;right=0;align=left;spacingLeft=6;overflow=hidden;whiteSpace=wrap;html=1;" parent="HRbyK_xEVIvlZvp6VBce-68" vertex="1">
          <mxGeometry x="30" width="150" height="30" as="geometry">
            <mxRectangle width="150" height="30" as="alternateBounds" />
          </mxGeometry>
        </mxCell>
        <mxCell id="HRbyK_xEVIvlZvp6VBce-77" value="Religiones" style="shape=table;startSize=30;container=1;collapsible=1;childLayout=tableLayout;fixedRows=1;rowLines=0;fontStyle=1;align=center;resizeLast=1;html=1;" parent="1" vertex="1">
          <mxGeometry x="1030" y="44" width="180" height="90" as="geometry" />
        </mxCell>
        <mxCell id="HRbyK_xEVIvlZvp6VBce-78" value="" style="shape=tableRow;horizontal=0;startSize=0;swimlaneHead=0;swimlaneBody=0;fillColor=none;collapsible=0;dropTarget=0;points=[[0,0.5],[1,0.5]];portConstraint=eastwest;top=0;left=0;right=0;bottom=1;" parent="HRbyK_xEVIvlZvp6VBce-77" vertex="1">
          <mxGeometry y="30" width="180" height="30" as="geometry" />
        </mxCell>
        <mxCell id="HRbyK_xEVIvlZvp6VBce-79" value="PK" style="shape=partialRectangle;connectable=0;fillColor=none;top=0;left=0;bottom=0;right=0;fontStyle=1;overflow=hidden;whiteSpace=wrap;html=1;" parent="HRbyK_xEVIvlZvp6VBce-78" vertex="1">
          <mxGeometry width="30" height="30" as="geometry">
            <mxRectangle width="30" height="30" as="alternateBounds" />
          </mxGeometry>
        </mxCell>
        <mxCell id="HRbyK_xEVIvlZvp6VBce-80" value="codigo" style="shape=partialRectangle;connectable=0;fillColor=none;top=0;left=0;bottom=0;right=0;align=left;spacingLeft=6;fontStyle=5;overflow=hidden;whiteSpace=wrap;html=1;" parent="HRbyK_xEVIvlZvp6VBce-78" vertex="1">
          <mxGeometry x="30" width="150" height="30" as="geometry">
            <mxRectangle width="150" height="30" as="alternateBounds" />
          </mxGeometry>
        </mxCell>
        <mxCell id="HRbyK_xEVIvlZvp6VBce-81" value="" style="shape=tableRow;horizontal=0;startSize=0;swimlaneHead=0;swimlaneBody=0;fillColor=none;collapsible=0;dropTarget=0;points=[[0,0.5],[1,0.5]];portConstraint=eastwest;top=0;left=0;right=0;bottom=0;" parent="HRbyK_xEVIvlZvp6VBce-77" vertex="1">
          <mxGeometry y="60" width="180" height="30" as="geometry" />
        </mxCell>
        <mxCell id="HRbyK_xEVIvlZvp6VBce-82" value="" style="shape=partialRectangle;connectable=0;fillColor=none;top=0;left=0;bottom=0;right=0;editable=1;overflow=hidden;whiteSpace=wrap;html=1;" parent="HRbyK_xEVIvlZvp6VBce-81" vertex="1">
          <mxGeometry width="30" height="30" as="geometry">
            <mxRectangle width="30" height="30" as="alternateBounds" />
          </mxGeometry>
        </mxCell>
        <mxCell id="HRbyK_xEVIvlZvp6VBce-83" value="nombre" style="shape=partialRectangle;connectable=0;fillColor=none;top=0;left=0;bottom=0;right=0;align=left;spacingLeft=6;overflow=hidden;whiteSpace=wrap;html=1;" parent="HRbyK_xEVIvlZvp6VBce-81" vertex="1">
          <mxGeometry x="30" width="150" height="30" as="geometry">
            <mxRectangle width="150" height="30" as="alternateBounds" />
          </mxGeometry>
        </mxCell>
        <mxCell id="HRbyK_xEVIvlZvp6VBce-84" value="Materias_primas" style="shape=table;startSize=30;container=1;collapsible=1;childLayout=tableLayout;fixedRows=1;rowLines=0;fontStyle=1;align=center;resizeLast=1;html=1;" parent="1" vertex="1">
          <mxGeometry x="1030" y="174" width="180" height="90" as="geometry" />
        </mxCell>
        <mxCell id="HRbyK_xEVIvlZvp6VBce-85" value="" style="shape=tableRow;horizontal=0;startSize=0;swimlaneHead=0;swimlaneBody=0;fillColor=none;collapsible=0;dropTarget=0;points=[[0,0.5],[1,0.5]];portConstraint=eastwest;top=0;left=0;right=0;bottom=1;" parent="HRbyK_xEVIvlZvp6VBce-84" vertex="1">
          <mxGeometry y="30" width="180" height="30" as="geometry" />
        </mxCell>
        <mxCell id="HRbyK_xEVIvlZvp6VBce-86" value="PK" style="shape=partialRectangle;connectable=0;fillColor=none;top=0;left=0;bottom=0;right=0;fontStyle=1;overflow=hidden;whiteSpace=wrap;html=1;" parent="HRbyK_xEVIvlZvp6VBce-85" vertex="1">
          <mxGeometry width="30" height="30" as="geometry">
            <mxRectangle width="30" height="30" as="alternateBounds" />
          </mxGeometry>
        </mxCell>
        <mxCell id="HRbyK_xEVIvlZvp6VBce-87" value="codigo" style="shape=partialRectangle;connectable=0;fillColor=none;top=0;left=0;bottom=0;right=0;align=left;spacingLeft=6;fontStyle=5;overflow=hidden;whiteSpace=wrap;html=1;" parent="HRbyK_xEVIvlZvp6VBce-85" vertex="1">
          <mxGeometry x="30" width="150" height="30" as="geometry">
            <mxRectangle width="150" height="30" as="alternateBounds" />
          </mxGeometry>
        </mxCell>
        <mxCell id="HRbyK_xEVIvlZvp6VBce-88" value="" style="shape=tableRow;horizontal=0;startSize=0;swimlaneHead=0;swimlaneBody=0;fillColor=none;collapsible=0;dropTarget=0;points=[[0,0.5],[1,0.5]];portConstraint=eastwest;top=0;left=0;right=0;bottom=0;" parent="HRbyK_xEVIvlZvp6VBce-84" vertex="1">
          <mxGeometry y="60" width="180" height="30" as="geometry" />
        </mxCell>
        <mxCell id="HRbyK_xEVIvlZvp6VBce-89" value="" style="shape=partialRectangle;connectable=0;fillColor=none;top=0;left=0;bottom=0;right=0;editable=1;overflow=hidden;whiteSpace=wrap;html=1;" parent="HRbyK_xEVIvlZvp6VBce-88" vertex="1">
          <mxGeometry width="30" height="30" as="geometry">
            <mxRectangle width="30" height="30" as="alternateBounds" />
          </mxGeometry>
        </mxCell>
        <mxCell id="HRbyK_xEVIvlZvp6VBce-90" value="nombre" style="shape=partialRectangle;connectable=0;fillColor=none;top=0;left=0;bottom=0;right=0;align=left;spacingLeft=6;overflow=hidden;whiteSpace=wrap;html=1;" parent="HRbyK_xEVIvlZvp6VBce-88" vertex="1">
          <mxGeometry x="30" width="150" height="30" as="geometry">
            <mxRectangle width="150" height="30" as="alternateBounds" />
          </mxGeometry>
        </mxCell>
        <mxCell id="HRbyK_xEVIvlZvp6VBce-91" value="Etnias" style="shape=table;startSize=30;container=1;collapsible=1;childLayout=tableLayout;fixedRows=1;rowLines=0;fontStyle=1;align=center;resizeLast=1;html=1;" parent="1" vertex="1">
          <mxGeometry x="1030" y="304" width="180" height="90" as="geometry" />
        </mxCell>
        <mxCell id="HRbyK_xEVIvlZvp6VBce-92" value="" style="shape=tableRow;horizontal=0;startSize=0;swimlaneHead=0;swimlaneBody=0;fillColor=none;collapsible=0;dropTarget=0;points=[[0,0.5],[1,0.5]];portConstraint=eastwest;top=0;left=0;right=0;bottom=1;" parent="HRbyK_xEVIvlZvp6VBce-91" vertex="1">
          <mxGeometry y="30" width="180" height="30" as="geometry" />
        </mxCell>
        <mxCell id="HRbyK_xEVIvlZvp6VBce-93" value="PK" style="shape=partialRectangle;connectable=0;fillColor=none;top=0;left=0;bottom=0;right=0;fontStyle=1;overflow=hidden;whiteSpace=wrap;html=1;" parent="HRbyK_xEVIvlZvp6VBce-92" vertex="1">
          <mxGeometry width="30" height="30" as="geometry">
            <mxRectangle width="30" height="30" as="alternateBounds" />
          </mxGeometry>
        </mxCell>
        <mxCell id="HRbyK_xEVIvlZvp6VBce-94" value="codigo" style="shape=partialRectangle;connectable=0;fillColor=none;top=0;left=0;bottom=0;right=0;align=left;spacingLeft=6;fontStyle=5;overflow=hidden;whiteSpace=wrap;html=1;" parent="HRbyK_xEVIvlZvp6VBce-92" vertex="1">
          <mxGeometry x="30" width="150" height="30" as="geometry">
            <mxRectangle width="150" height="30" as="alternateBounds" />
          </mxGeometry>
        </mxCell>
        <mxCell id="HRbyK_xEVIvlZvp6VBce-95" value="" style="shape=tableRow;horizontal=0;startSize=0;swimlaneHead=0;swimlaneBody=0;fillColor=none;collapsible=0;dropTarget=0;points=[[0,0.5],[1,0.5]];portConstraint=eastwest;top=0;left=0;right=0;bottom=0;" parent="HRbyK_xEVIvlZvp6VBce-91" vertex="1">
          <mxGeometry y="60" width="180" height="30" as="geometry" />
        </mxCell>
        <mxCell id="HRbyK_xEVIvlZvp6VBce-96" value="" style="shape=partialRectangle;connectable=0;fillColor=none;top=0;left=0;bottom=0;right=0;editable=1;overflow=hidden;whiteSpace=wrap;html=1;" parent="HRbyK_xEVIvlZvp6VBce-95" vertex="1">
          <mxGeometry width="30" height="30" as="geometry">
            <mxRectangle width="30" height="30" as="alternateBounds" />
          </mxGeometry>
        </mxCell>
        <mxCell id="HRbyK_xEVIvlZvp6VBce-97" value="nombre" style="shape=partialRectangle;connectable=0;fillColor=none;top=0;left=0;bottom=0;right=0;align=left;spacingLeft=6;overflow=hidden;whiteSpace=wrap;html=1;" parent="HRbyK_xEVIvlZvp6VBce-95" vertex="1">
          <mxGeometry x="30" width="150" height="30" as="geometry">
            <mxRectangle width="150" height="30" as="alternateBounds" />
          </mxGeometry>
        </mxCell>
        <mxCell id="HRbyK_xEVIvlZvp6VBce-98" value="Conflictos_Regiones" style="shape=table;startSize=30;container=1;collapsible=1;childLayout=tableLayout;fixedRows=1;rowLines=0;fontStyle=1;align=center;resizeLast=1;html=1;whiteSpace=wrap;" parent="1" vertex="1">
          <mxGeometry x="810" y="-86" width="180" height="90" as="geometry" />
        </mxCell>
        <mxCell id="HRbyK_xEVIvlZvp6VBce-99" value="" style="shape=tableRow;horizontal=0;startSize=0;swimlaneHead=0;swimlaneBody=0;fillColor=none;collapsible=0;dropTarget=0;points=[[0,0.5],[1,0.5]];portConstraint=eastwest;top=0;left=0;right=0;bottom=0;html=1;" parent="HRbyK_xEVIvlZvp6VBce-98" vertex="1">
          <mxGeometry y="30" width="180" height="30" as="geometry" />
        </mxCell>
        <mxCell id="HRbyK_xEVIvlZvp6VBce-100" value="PK,FK1" style="shape=partialRectangle;connectable=0;fillColor=none;top=0;left=0;bottom=0;right=0;fontStyle=1;overflow=hidden;html=1;whiteSpace=wrap;" parent="HRbyK_xEVIvlZvp6VBce-99" vertex="1">
          <mxGeometry width="60" height="30" as="geometry">
            <mxRectangle width="60" height="30" as="alternateBounds" />
          </mxGeometry>
        </mxCell>
        <mxCell id="HRbyK_xEVIvlZvp6VBce-101" value="codigo_conflicto" style="shape=partialRectangle;connectable=0;fillColor=none;top=0;left=0;bottom=0;right=0;align=left;spacingLeft=6;fontStyle=5;overflow=hidden;html=1;whiteSpace=wrap;" parent="HRbyK_xEVIvlZvp6VBce-99" vertex="1">
          <mxGeometry x="60" width="120" height="30" as="geometry">
            <mxRectangle width="120" height="30" as="alternateBounds" />
          </mxGeometry>
        </mxCell>
        <mxCell id="HRbyK_xEVIvlZvp6VBce-102" value="" style="shape=tableRow;horizontal=0;startSize=0;swimlaneHead=0;swimlaneBody=0;fillColor=none;collapsible=0;dropTarget=0;points=[[0,0.5],[1,0.5]];portConstraint=eastwest;top=0;left=0;right=0;bottom=1;html=1;" parent="HRbyK_xEVIvlZvp6VBce-98" vertex="1">
          <mxGeometry y="60" width="180" height="30" as="geometry" />
        </mxCell>
        <mxCell id="HRbyK_xEVIvlZvp6VBce-103" value="PK,FK2" style="shape=partialRectangle;connectable=0;fillColor=none;top=0;left=0;bottom=0;right=0;fontStyle=1;overflow=hidden;html=1;whiteSpace=wrap;" parent="HRbyK_xEVIvlZvp6VBce-102" vertex="1">
          <mxGeometry width="60" height="30" as="geometry">
            <mxRectangle width="60" height="30" as="alternateBounds" />
          </mxGeometry>
        </mxCell>
        <mxCell id="HRbyK_xEVIvlZvp6VBce-104" value="codigo_region" style="shape=partialRectangle;connectable=0;fillColor=none;top=0;left=0;bottom=0;right=0;align=left;spacingLeft=6;fontStyle=5;overflow=hidden;html=1;whiteSpace=wrap;" parent="HRbyK_xEVIvlZvp6VBce-102" vertex="1">
          <mxGeometry x="60" width="120" height="30" as="geometry">
            <mxRectangle width="120" height="30" as="alternateBounds" />
          </mxGeometry>
        </mxCell>
        <mxCell id="HRbyK_xEVIvlZvp6VBce-111" value="Conflictos_Religiones" style="shape=table;startSize=30;container=1;collapsible=1;childLayout=tableLayout;fixedRows=1;rowLines=0;fontStyle=1;align=center;resizeLast=1;html=1;whiteSpace=wrap;" parent="1" vertex="1">
          <mxGeometry x="810" y="44" width="180" height="90" as="geometry" />
        </mxCell>
        <mxCell id="HRbyK_xEVIvlZvp6VBce-112" value="" style="shape=tableRow;horizontal=0;startSize=0;swimlaneHead=0;swimlaneBody=0;fillColor=none;collapsible=0;dropTarget=0;points=[[0,0.5],[1,0.5]];portConstraint=eastwest;top=0;left=0;right=0;bottom=0;html=1;" parent="HRbyK_xEVIvlZvp6VBce-111" vertex="1">
          <mxGeometry y="30" width="180" height="30" as="geometry" />
        </mxCell>
        <mxCell id="HRbyK_xEVIvlZvp6VBce-113" value="PK,FK1" style="shape=partialRectangle;connectable=0;fillColor=none;top=0;left=0;bottom=0;right=0;fontStyle=1;overflow=hidden;html=1;whiteSpace=wrap;" parent="HRbyK_xEVIvlZvp6VBce-112" vertex="1">
          <mxGeometry width="60" height="30" as="geometry">
            <mxRectangle width="60" height="30" as="alternateBounds" />
          </mxGeometry>
        </mxCell>
        <mxCell id="HRbyK_xEVIvlZvp6VBce-114" value="codigo_conflicto" style="shape=partialRectangle;connectable=0;fillColor=none;top=0;left=0;bottom=0;right=0;align=left;spacingLeft=6;fontStyle=5;overflow=hidden;html=1;whiteSpace=wrap;" parent="HRbyK_xEVIvlZvp6VBce-112" vertex="1">
          <mxGeometry x="60" width="120" height="30" as="geometry">
            <mxRectangle width="120" height="30" as="alternateBounds" />
          </mxGeometry>
        </mxCell>
        <mxCell id="HRbyK_xEVIvlZvp6VBce-115" value="" style="shape=tableRow;horizontal=0;startSize=0;swimlaneHead=0;swimlaneBody=0;fillColor=none;collapsible=0;dropTarget=0;points=[[0,0.5],[1,0.5]];portConstraint=eastwest;top=0;left=0;right=0;bottom=1;html=1;" parent="HRbyK_xEVIvlZvp6VBce-111" vertex="1">
          <mxGeometry y="60" width="180" height="30" as="geometry" />
        </mxCell>
        <mxCell id="HRbyK_xEVIvlZvp6VBce-116" value="PK,FK2" style="shape=partialRectangle;connectable=0;fillColor=none;top=0;left=0;bottom=0;right=0;fontStyle=1;overflow=hidden;html=1;whiteSpace=wrap;" parent="HRbyK_xEVIvlZvp6VBce-115" vertex="1">
          <mxGeometry width="60" height="30" as="geometry">
            <mxRectangle width="60" height="30" as="alternateBounds" />
          </mxGeometry>
        </mxCell>
        <mxCell id="HRbyK_xEVIvlZvp6VBce-117" value="codigo_religion" style="shape=partialRectangle;connectable=0;fillColor=none;top=0;left=0;bottom=0;right=0;align=left;spacingLeft=6;fontStyle=5;overflow=hidden;html=1;whiteSpace=wrap;" parent="HRbyK_xEVIvlZvp6VBce-115" vertex="1">
          <mxGeometry x="60" width="120" height="30" as="geometry">
            <mxRectangle width="120" height="30" as="alternateBounds" />
          </mxGeometry>
        </mxCell>
        <mxCell id="HRbyK_xEVIvlZvp6VBce-118" value="Conflictos_Materias_primas" style="shape=table;startSize=30;container=1;collapsible=1;childLayout=tableLayout;fixedRows=1;rowLines=0;fontStyle=1;align=center;resizeLast=1;html=1;whiteSpace=wrap;" parent="1" vertex="1">
          <mxGeometry x="810" y="174" width="180" height="90" as="geometry" />
        </mxCell>
        <mxCell id="HRbyK_xEVIvlZvp6VBce-119" value="" style="shape=tableRow;horizontal=0;startSize=0;swimlaneHead=0;swimlaneBody=0;fillColor=none;collapsible=0;dropTarget=0;points=[[0,0.5],[1,0.5]];portConstraint=eastwest;top=0;left=0;right=0;bottom=0;html=1;" parent="HRbyK_xEVIvlZvp6VBce-118" vertex="1">
          <mxGeometry y="30" width="180" height="30" as="geometry" />
        </mxCell>
        <mxCell id="HRbyK_xEVIvlZvp6VBce-120" value="PK,FK1" style="shape=partialRectangle;connectable=0;fillColor=none;top=0;left=0;bottom=0;right=0;fontStyle=1;overflow=hidden;html=1;whiteSpace=wrap;" parent="HRbyK_xEVIvlZvp6VBce-119" vertex="1">
          <mxGeometry width="60" height="30" as="geometry">
            <mxRectangle width="60" height="30" as="alternateBounds" />
          </mxGeometry>
        </mxCell>
        <mxCell id="HRbyK_xEVIvlZvp6VBce-121" value="codigo_conflicto" style="shape=partialRectangle;connectable=0;fillColor=none;top=0;left=0;bottom=0;right=0;align=left;spacingLeft=6;fontStyle=5;overflow=hidden;html=1;whiteSpace=wrap;" parent="HRbyK_xEVIvlZvp6VBce-119" vertex="1">
          <mxGeometry x="60" width="120" height="30" as="geometry">
            <mxRectangle width="120" height="30" as="alternateBounds" />
          </mxGeometry>
        </mxCell>
        <mxCell id="HRbyK_xEVIvlZvp6VBce-122" value="" style="shape=tableRow;horizontal=0;startSize=0;swimlaneHead=0;swimlaneBody=0;fillColor=none;collapsible=0;dropTarget=0;points=[[0,0.5],[1,0.5]];portConstraint=eastwest;top=0;left=0;right=0;bottom=1;html=1;" parent="HRbyK_xEVIvlZvp6VBce-118" vertex="1">
          <mxGeometry y="60" width="180" height="30" as="geometry" />
        </mxCell>
        <mxCell id="HRbyK_xEVIvlZvp6VBce-123" value="PK,FK2" style="shape=partialRectangle;connectable=0;fillColor=none;top=0;left=0;bottom=0;right=0;fontStyle=1;overflow=hidden;html=1;whiteSpace=wrap;" parent="HRbyK_xEVIvlZvp6VBce-122" vertex="1">
          <mxGeometry width="60" height="30" as="geometry">
            <mxRectangle width="60" height="30" as="alternateBounds" />
          </mxGeometry>
        </mxCell>
        <mxCell id="HRbyK_xEVIvlZvp6VBce-124" value="codigo_materia_pr" style="shape=partialRectangle;connectable=0;fillColor=none;top=0;left=0;bottom=0;right=0;align=left;spacingLeft=6;fontStyle=5;overflow=hidden;html=1;whiteSpace=wrap;" parent="HRbyK_xEVIvlZvp6VBce-122" vertex="1">
          <mxGeometry x="60" width="120" height="30" as="geometry">
            <mxRectangle width="120" height="30" as="alternateBounds" />
          </mxGeometry>
        </mxCell>
        <mxCell id="HRbyK_xEVIvlZvp6VBce-125" value="Conflictos_Etnias" style="shape=table;startSize=30;container=1;collapsible=1;childLayout=tableLayout;fixedRows=1;rowLines=0;fontStyle=1;align=center;resizeLast=1;html=1;whiteSpace=wrap;" parent="1" vertex="1">
          <mxGeometry x="810" y="304" width="180" height="90" as="geometry" />
        </mxCell>
        <mxCell id="HRbyK_xEVIvlZvp6VBce-126" value="" style="shape=tableRow;horizontal=0;startSize=0;swimlaneHead=0;swimlaneBody=0;fillColor=none;collapsible=0;dropTarget=0;points=[[0,0.5],[1,0.5]];portConstraint=eastwest;top=0;left=0;right=0;bottom=0;html=1;" parent="HRbyK_xEVIvlZvp6VBce-125" vertex="1">
          <mxGeometry y="30" width="180" height="30" as="geometry" />
        </mxCell>
        <mxCell id="HRbyK_xEVIvlZvp6VBce-127" value="PK,FK1" style="shape=partialRectangle;connectable=0;fillColor=none;top=0;left=0;bottom=0;right=0;fontStyle=1;overflow=hidden;html=1;whiteSpace=wrap;" parent="HRbyK_xEVIvlZvp6VBce-126" vertex="1">
          <mxGeometry width="60" height="30" as="geometry">
            <mxRectangle width="60" height="30" as="alternateBounds" />
          </mxGeometry>
        </mxCell>
        <mxCell id="HRbyK_xEVIvlZvp6VBce-128" value="codigo_conflicto" style="shape=partialRectangle;connectable=0;fillColor=none;top=0;left=0;bottom=0;right=0;align=left;spacingLeft=6;fontStyle=5;overflow=hidden;html=1;whiteSpace=wrap;" parent="HRbyK_xEVIvlZvp6VBce-126" vertex="1">
          <mxGeometry x="60" width="120" height="30" as="geometry">
            <mxRectangle width="120" height="30" as="alternateBounds" />
          </mxGeometry>
        </mxCell>
        <mxCell id="HRbyK_xEVIvlZvp6VBce-129" value="" style="shape=tableRow;horizontal=0;startSize=0;swimlaneHead=0;swimlaneBody=0;fillColor=none;collapsible=0;dropTarget=0;points=[[0,0.5],[1,0.5]];portConstraint=eastwest;top=0;left=0;right=0;bottom=1;html=1;" parent="HRbyK_xEVIvlZvp6VBce-125" vertex="1">
          <mxGeometry y="60" width="180" height="30" as="geometry" />
        </mxCell>
        <mxCell id="HRbyK_xEVIvlZvp6VBce-130" value="PK,FK2" style="shape=partialRectangle;connectable=0;fillColor=none;top=0;left=0;bottom=0;right=0;fontStyle=1;overflow=hidden;html=1;whiteSpace=wrap;" parent="HRbyK_xEVIvlZvp6VBce-129" vertex="1">
          <mxGeometry width="60" height="30" as="geometry">
            <mxRectangle width="60" height="30" as="alternateBounds" />
          </mxGeometry>
        </mxCell>
        <mxCell id="HRbyK_xEVIvlZvp6VBce-131" value="codigo_etnia" style="shape=partialRectangle;connectable=0;fillColor=none;top=0;left=0;bottom=0;right=0;align=left;spacingLeft=6;fontStyle=5;overflow=hidden;html=1;whiteSpace=wrap;" parent="HRbyK_xEVIvlZvp6VBce-129" vertex="1">
          <mxGeometry x="60" width="120" height="30" as="geometry">
            <mxRectangle width="120" height="30" as="alternateBounds" />
          </mxGeometry>
        </mxCell>
        <mxCell id="HRbyK_xEVIvlZvp6VBce-132" value="" style="endArrow=classic;html=1;rounded=0;entryX=1;entryY=0.5;entryDx=0;entryDy=0;exitX=0;exitY=0.5;exitDx=0;exitDy=0;" parent="1" source="HRbyK_xEVIvlZvp6VBce-65" target="HRbyK_xEVIvlZvp6VBce-102" edge="1">
          <mxGeometry width="50" height="50" relative="1" as="geometry">
            <mxPoint x="1030" y="-41" as="sourcePoint" />
            <mxPoint x="990" y="-11" as="targetPoint" />
            <Array as="points">
              <mxPoint x="1010" y="-41" />
              <mxPoint x="1010" y="-11" />
            </Array>
          </mxGeometry>
        </mxCell>
        <mxCell id="HRbyK_xEVIvlZvp6VBce-133" value="" style="endArrow=classic;html=1;rounded=0;entryX=1;entryY=0.5;entryDx=0;entryDy=0;exitX=0;exitY=0.5;exitDx=0;exitDy=0;" parent="1" source="HRbyK_xEVIvlZvp6VBce-78" target="HRbyK_xEVIvlZvp6VBce-115" edge="1">
          <mxGeometry width="50" height="50" relative="1" as="geometry">
            <mxPoint x="1030" y="89" as="sourcePoint" />
            <mxPoint x="990" y="119" as="targetPoint" />
            <Array as="points">
              <mxPoint x="1010" y="89" />
              <mxPoint x="1010" y="119" />
            </Array>
          </mxGeometry>
        </mxCell>
        <mxCell id="HRbyK_xEVIvlZvp6VBce-134" value="" style="endArrow=classic;html=1;rounded=0;entryX=1;entryY=0.5;entryDx=0;entryDy=0;exitX=0;exitY=0.5;exitDx=0;exitDy=0;" parent="1" source="HRbyK_xEVIvlZvp6VBce-85" target="HRbyK_xEVIvlZvp6VBce-122" edge="1">
          <mxGeometry width="50" height="50" relative="1" as="geometry">
            <mxPoint x="1030" y="219" as="sourcePoint" />
            <mxPoint x="990" y="249" as="targetPoint" />
            <Array as="points">
              <mxPoint x="1010" y="219" />
              <mxPoint x="1010" y="249" />
            </Array>
          </mxGeometry>
        </mxCell>
        <mxCell id="HRbyK_xEVIvlZvp6VBce-135" value="" style="endArrow=classic;html=1;rounded=0;entryX=1;entryY=0.5;entryDx=0;entryDy=0;exitX=0;exitY=0.5;exitDx=0;exitDy=0;" parent="1" source="HRbyK_xEVIvlZvp6VBce-92" target="HRbyK_xEVIvlZvp6VBce-129" edge="1">
          <mxGeometry width="50" height="50" relative="1" as="geometry">
            <mxPoint x="1030" y="349" as="sourcePoint" />
            <mxPoint x="990" y="379" as="targetPoint" />
            <Array as="points">
              <mxPoint x="1010" y="349" />
              <mxPoint x="1010" y="379" />
            </Array>
          </mxGeometry>
        </mxCell>
        <mxCell id="HRbyK_xEVIvlZvp6VBce-136" value="" style="endArrow=classic;html=1;rounded=0;exitX=1;exitY=0.5;exitDx=0;exitDy=0;entryX=0;entryY=0.5;entryDx=0;entryDy=0;" parent="1" source="HRbyK_xEVIvlZvp6VBce-9" target="HRbyK_xEVIvlZvp6VBce-99" edge="1">
          <mxGeometry width="50" height="50" relative="1" as="geometry">
            <mxPoint x="1106" y="103" as="sourcePoint" />
            <mxPoint x="1156" y="53" as="targetPoint" />
            <Array as="points">
              <mxPoint x="790" y="19" />
              <mxPoint x="790" y="-41" />
            </Array>
          </mxGeometry>
        </mxCell>
        <mxCell id="HRbyK_xEVIvlZvp6VBce-137" value="" style="endArrow=classic;html=1;rounded=0;exitX=1;exitY=0.5;exitDx=0;exitDy=0;entryX=0;entryY=0.5;entryDx=0;entryDy=0;" parent="1" source="HRbyK_xEVIvlZvp6VBce-9" target="HRbyK_xEVIvlZvp6VBce-112" edge="1">
          <mxGeometry width="50" height="50" relative="1" as="geometry">
            <mxPoint x="770" y="-41" as="sourcePoint" />
            <mxPoint x="810" y="89" as="targetPoint" />
            <Array as="points">
              <mxPoint x="790" y="19" />
              <mxPoint x="790" y="89" />
            </Array>
          </mxGeometry>
        </mxCell>
        <mxCell id="HRbyK_xEVIvlZvp6VBce-138" value="" style="endArrow=classic;html=1;rounded=0;exitX=1;exitY=0.5;exitDx=0;exitDy=0;entryX=0;entryY=0.5;entryDx=0;entryDy=0;" parent="1" source="HRbyK_xEVIvlZvp6VBce-9" target="HRbyK_xEVIvlZvp6VBce-119" edge="1">
          <mxGeometry width="50" height="50" relative="1" as="geometry">
            <mxPoint x="770" y="-41" as="sourcePoint" />
            <mxPoint x="810" y="219" as="targetPoint" />
            <Array as="points">
              <mxPoint x="790" y="19" />
              <mxPoint x="790" y="219" />
            </Array>
          </mxGeometry>
        </mxCell>
        <mxCell id="HRbyK_xEVIvlZvp6VBce-139" value="" style="endArrow=classic;html=1;rounded=0;exitX=1;exitY=0.5;exitDx=0;exitDy=0;entryX=0;entryY=0.5;entryDx=0;entryDy=0;" parent="1" source="HRbyK_xEVIvlZvp6VBce-9" target="HRbyK_xEVIvlZvp6VBce-126" edge="1">
          <mxGeometry width="50" height="50" relative="1" as="geometry">
            <mxPoint x="770" y="-41" as="sourcePoint" />
            <mxPoint x="810" y="349" as="targetPoint" />
            <Array as="points">
              <mxPoint x="790" y="19" />
              <mxPoint x="790" y="-171" />
              <mxPoint x="790" y="349" />
            </Array>
          </mxGeometry>
        </mxCell>
        <mxCell id="HRbyK_xEVIvlZvp6VBce-141" value="intervenir" style="shape=rhombus;perimeter=rhombusPerimeter;whiteSpace=wrap;html=1;align=center;" parent="1" vertex="1">
          <mxGeometry x="725" y="760" width="120" height="60" as="geometry" />
        </mxCell>
        <mxCell id="HRbyK_xEVIvlZvp6VBce-143" value="GRUPO ARMADO" style="whiteSpace=wrap;html=1;align=center;" parent="1" vertex="1">
          <mxGeometry x="505" y="770" width="100" height="40" as="geometry" />
        </mxCell>
        <mxCell id="HRbyK_xEVIvlZvp6VBce-144" value="mediar" style="shape=rhombus;perimeter=rhombusPerimeter;whiteSpace=wrap;html=1;align=center;" parent="1" vertex="1">
          <mxGeometry x="955" y="650" width="120" height="60" as="geometry" />
        </mxCell>
        <mxCell id="HRbyK_xEVIvlZvp6VBce-145" value="ORGANIZACION" style="whiteSpace=wrap;html=1;align=center;" parent="1" vertex="1">
          <mxGeometry x="965" y="550" width="100" height="40" as="geometry" />
        </mxCell>
        <mxCell id="HRbyK_xEVIvlZvp6VBce-146" value="" style="endArrow=classic;html=1;rounded=0;exitX=1;exitY=0.5;exitDx=0;exitDy=0;entryX=0;entryY=0.5;entryDx=0;entryDy=0;" parent="1" source="HRbyK_xEVIvlZvp6VBce-141" target="5cUxGQwEymCMh7XVlLyC-59" edge="1">
          <mxGeometry width="50" height="50" relative="1" as="geometry">
            <mxPoint x="889" y="732" as="sourcePoint" />
            <mxPoint x="939" y="682" as="targetPoint" />
          </mxGeometry>
        </mxCell>
        <mxCell id="HRbyK_xEVIvlZvp6VBce-147" value="" style="endArrow=classic;html=1;rounded=0;entryX=1;entryY=0.5;entryDx=0;entryDy=0;exitX=0;exitY=0.5;exitDx=0;exitDy=0;" parent="1" source="HRbyK_xEVIvlZvp6VBce-141" target="HRbyK_xEVIvlZvp6VBce-143" edge="1">
          <mxGeometry width="50" height="50" relative="1" as="geometry">
            <mxPoint x="889" y="732" as="sourcePoint" />
            <mxPoint x="939" y="682" as="targetPoint" />
          </mxGeometry>
        </mxCell>
        <mxCell id="HRbyK_xEVIvlZvp6VBce-148" value="" style="endArrow=classic;html=1;rounded=0;exitX=0.5;exitY=1;exitDx=0;exitDy=0;entryX=0.5;entryY=0;entryDx=0;entryDy=0;" parent="1" source="HRbyK_xEVIvlZvp6VBce-144" target="5cUxGQwEymCMh7XVlLyC-59" edge="1">
          <mxGeometry width="50" height="50" relative="1" as="geometry">
            <mxPoint x="889" y="732" as="sourcePoint" />
            <mxPoint x="939" y="682" as="targetPoint" />
          </mxGeometry>
        </mxCell>
        <mxCell id="HRbyK_xEVIvlZvp6VBce-149" value="" style="endArrow=classic;html=1;rounded=0;entryX=0.5;entryY=1;entryDx=0;entryDy=0;exitX=0.5;exitY=0;exitDx=0;exitDy=0;" parent="1" source="HRbyK_xEVIvlZvp6VBce-144" target="HRbyK_xEVIvlZvp6VBce-145" edge="1">
          <mxGeometry width="50" height="50" relative="1" as="geometry">
            <mxPoint x="889" y="732" as="sourcePoint" />
            <mxPoint x="939" y="682" as="targetPoint" />
          </mxGeometry>
        </mxCell>
        <mxCell id="HRbyK_xEVIvlZvp6VBce-150" value="( 2, N )" style="text;html=1;align=center;verticalAlign=middle;resizable=0;points=[];autosize=1;strokeColor=none;fillColor=none;" parent="1" vertex="1">
          <mxGeometry x="605" y="790" width="55" height="26" as="geometry" />
        </mxCell>
        <mxCell id="HRbyK_xEVIvlZvp6VBce-151" value="( 0, N )" style="text;html=1;align=center;verticalAlign=middle;resizable=0;points=[];autosize=1;strokeColor=none;fillColor=none;" parent="1" vertex="1">
          <mxGeometry x="910" y="790" width="55" height="26" as="geometry" />
        </mxCell>
        <mxCell id="HRbyK_xEVIvlZvp6VBce-152" value="N : M" style="text;html=1;align=center;verticalAlign=middle;resizable=0;points=[];autosize=1;strokeColor=none;fillColor=none;" parent="1" vertex="1">
          <mxGeometry x="761.5" y="734" width="47" height="26" as="geometry" />
        </mxCell>
        <mxCell id="HRbyK_xEVIvlZvp6VBce-153" value="( 0, N )" style="text;html=1;align=center;verticalAlign=middle;resizable=0;points=[];autosize=1;strokeColor=none;fillColor=none;" parent="1" vertex="1">
          <mxGeometry x="1015" y="590" width="55" height="26" as="geometry" />
        </mxCell>
        <mxCell id="HRbyK_xEVIvlZvp6VBce-154" value="( 0, N )" style="text;html=1;align=center;verticalAlign=middle;resizable=0;points=[];autosize=1;strokeColor=none;fillColor=none;" parent="1" vertex="1">
          <mxGeometry x="1015" y="744" width="55" height="26" as="geometry" />
        </mxCell>
        <mxCell id="HRbyK_xEVIvlZvp6VBce-155" value="N : M" style="text;html=1;align=center;verticalAlign=middle;resizable=0;points=[];autosize=1;strokeColor=none;fillColor=none;" parent="1" vertex="1">
          <mxGeometry x="908" y="667" width="47" height="26" as="geometry" />
        </mxCell>
        <mxCell id="HRbyK_xEVIvlZvp6VBce-156" value="Conflictos_Organizaciones" style="shape=table;startSize=30;container=1;collapsible=1;childLayout=tableLayout;fixedRows=1;rowLines=0;fontStyle=1;align=center;resizeLast=1;html=1;whiteSpace=wrap;" parent="1" vertex="1">
          <mxGeometry x="590" y="-216" width="180" height="150" as="geometry" />
        </mxCell>
        <mxCell id="HRbyK_xEVIvlZvp6VBce-157" value="" style="shape=tableRow;horizontal=0;startSize=0;swimlaneHead=0;swimlaneBody=0;fillColor=none;collapsible=0;dropTarget=0;points=[[0,0.5],[1,0.5]];portConstraint=eastwest;top=0;left=0;right=0;bottom=0;html=1;" parent="HRbyK_xEVIvlZvp6VBce-156" vertex="1">
          <mxGeometry y="30" width="180" height="30" as="geometry" />
        </mxCell>
        <mxCell id="HRbyK_xEVIvlZvp6VBce-158" value="PK,FK1" style="shape=partialRectangle;connectable=0;fillColor=none;top=0;left=0;bottom=0;right=0;fontStyle=1;overflow=hidden;html=1;whiteSpace=wrap;" parent="HRbyK_xEVIvlZvp6VBce-157" vertex="1">
          <mxGeometry width="60" height="30" as="geometry">
            <mxRectangle width="60" height="30" as="alternateBounds" />
          </mxGeometry>
        </mxCell>
        <mxCell id="HRbyK_xEVIvlZvp6VBce-159" value="codigo_conflicto" style="shape=partialRectangle;connectable=0;fillColor=none;top=0;left=0;bottom=0;right=0;align=left;spacingLeft=6;fontStyle=5;overflow=hidden;html=1;whiteSpace=wrap;" parent="HRbyK_xEVIvlZvp6VBce-157" vertex="1">
          <mxGeometry x="60" width="120" height="30" as="geometry">
            <mxRectangle width="120" height="30" as="alternateBounds" />
          </mxGeometry>
        </mxCell>
        <mxCell id="HRbyK_xEVIvlZvp6VBce-160" value="" style="shape=tableRow;horizontal=0;startSize=0;swimlaneHead=0;swimlaneBody=0;fillColor=none;collapsible=0;dropTarget=0;points=[[0,0.5],[1,0.5]];portConstraint=eastwest;top=0;left=0;right=0;bottom=1;html=1;" parent="HRbyK_xEVIvlZvp6VBce-156" vertex="1">
          <mxGeometry y="60" width="180" height="30" as="geometry" />
        </mxCell>
        <mxCell id="HRbyK_xEVIvlZvp6VBce-161" value="PK,FK2" style="shape=partialRectangle;connectable=0;fillColor=none;top=0;left=0;bottom=0;right=0;fontStyle=1;overflow=hidden;html=1;whiteSpace=wrap;" parent="HRbyK_xEVIvlZvp6VBce-160" vertex="1">
          <mxGeometry width="60" height="30" as="geometry">
            <mxRectangle width="60" height="30" as="alternateBounds" />
          </mxGeometry>
        </mxCell>
        <mxCell id="HRbyK_xEVIvlZvp6VBce-162" value="codigo_organizac" style="shape=partialRectangle;connectable=0;fillColor=none;top=0;left=0;bottom=0;right=0;align=left;spacingLeft=6;fontStyle=5;overflow=hidden;html=1;whiteSpace=wrap;" parent="HRbyK_xEVIvlZvp6VBce-160" vertex="1">
          <mxGeometry x="60" width="120" height="30" as="geometry">
            <mxRectangle width="120" height="30" as="alternateBounds" />
          </mxGeometry>
        </mxCell>
        <mxCell id="HRbyK_xEVIvlZvp6VBce-163" value="" style="shape=tableRow;horizontal=0;startSize=0;swimlaneHead=0;swimlaneBody=0;fillColor=none;collapsible=0;dropTarget=0;points=[[0,0.5],[1,0.5]];portConstraint=eastwest;top=0;left=0;right=0;bottom=0;html=1;" parent="HRbyK_xEVIvlZvp6VBce-156" vertex="1">
          <mxGeometry y="90" width="180" height="30" as="geometry" />
        </mxCell>
        <mxCell id="HRbyK_xEVIvlZvp6VBce-164" value="" style="shape=partialRectangle;connectable=0;fillColor=none;top=0;left=0;bottom=0;right=0;editable=1;overflow=hidden;html=1;whiteSpace=wrap;" parent="HRbyK_xEVIvlZvp6VBce-163" vertex="1">
          <mxGeometry width="60" height="30" as="geometry">
            <mxRectangle width="60" height="30" as="alternateBounds" />
          </mxGeometry>
        </mxCell>
        <mxCell id="HRbyK_xEVIvlZvp6VBce-165" value="fecha_entrada" style="shape=partialRectangle;connectable=0;fillColor=none;top=0;left=0;bottom=0;right=0;align=left;spacingLeft=6;overflow=hidden;html=1;whiteSpace=wrap;" parent="HRbyK_xEVIvlZvp6VBce-163" vertex="1">
          <mxGeometry x="60" width="120" height="30" as="geometry">
            <mxRectangle width="120" height="30" as="alternateBounds" />
          </mxGeometry>
        </mxCell>
        <mxCell id="HRbyK_xEVIvlZvp6VBce-166" value="" style="shape=tableRow;horizontal=0;startSize=0;swimlaneHead=0;swimlaneBody=0;fillColor=none;collapsible=0;dropTarget=0;points=[[0,0.5],[1,0.5]];portConstraint=eastwest;top=0;left=0;right=0;bottom=0;html=1;" parent="HRbyK_xEVIvlZvp6VBce-156" vertex="1">
          <mxGeometry y="120" width="180" height="30" as="geometry" />
        </mxCell>
        <mxCell id="HRbyK_xEVIvlZvp6VBce-167" value="" style="shape=partialRectangle;connectable=0;fillColor=none;top=0;left=0;bottom=0;right=0;editable=1;overflow=hidden;html=1;whiteSpace=wrap;" parent="HRbyK_xEVIvlZvp6VBce-166" vertex="1">
          <mxGeometry width="60" height="30" as="geometry">
            <mxRectangle width="60" height="30" as="alternateBounds" />
          </mxGeometry>
        </mxCell>
        <mxCell id="HRbyK_xEVIvlZvp6VBce-168" value="fecha_salida" style="shape=partialRectangle;connectable=0;fillColor=none;top=0;left=0;bottom=0;right=0;align=left;spacingLeft=6;overflow=hidden;html=1;whiteSpace=wrap;" parent="HRbyK_xEVIvlZvp6VBce-166" vertex="1">
          <mxGeometry x="60" width="120" height="30" as="geometry">
            <mxRectangle width="120" height="30" as="alternateBounds" />
          </mxGeometry>
        </mxCell>
        <mxCell id="HRbyK_xEVIvlZvp6VBce-169" value="Conflictos_Grupos_armados" style="shape=table;startSize=30;container=1;collapsible=1;childLayout=tableLayout;fixedRows=1;rowLines=0;fontStyle=1;align=center;resizeLast=1;html=1;whiteSpace=wrap;" parent="1" vertex="1">
          <mxGeometry x="590" y="164" width="180" height="150" as="geometry" />
        </mxCell>
        <mxCell id="HRbyK_xEVIvlZvp6VBce-170" value="" style="shape=tableRow;horizontal=0;startSize=0;swimlaneHead=0;swimlaneBody=0;fillColor=none;collapsible=0;dropTarget=0;points=[[0,0.5],[1,0.5]];portConstraint=eastwest;top=0;left=0;right=0;bottom=0;html=1;" parent="HRbyK_xEVIvlZvp6VBce-169" vertex="1">
          <mxGeometry y="30" width="180" height="30" as="geometry" />
        </mxCell>
        <mxCell id="HRbyK_xEVIvlZvp6VBce-171" value="PK,FK1" style="shape=partialRectangle;connectable=0;fillColor=none;top=0;left=0;bottom=0;right=0;fontStyle=1;overflow=hidden;html=1;whiteSpace=wrap;" parent="HRbyK_xEVIvlZvp6VBce-170" vertex="1">
          <mxGeometry width="60" height="30" as="geometry">
            <mxRectangle width="60" height="30" as="alternateBounds" />
          </mxGeometry>
        </mxCell>
        <mxCell id="HRbyK_xEVIvlZvp6VBce-172" value="codigo_conflicto" style="shape=partialRectangle;connectable=0;fillColor=none;top=0;left=0;bottom=0;right=0;align=left;spacingLeft=6;fontStyle=5;overflow=hidden;html=1;whiteSpace=wrap;" parent="HRbyK_xEVIvlZvp6VBce-170" vertex="1">
          <mxGeometry x="60" width="120" height="30" as="geometry">
            <mxRectangle width="120" height="30" as="alternateBounds" />
          </mxGeometry>
        </mxCell>
        <mxCell id="HRbyK_xEVIvlZvp6VBce-173" value="" style="shape=tableRow;horizontal=0;startSize=0;swimlaneHead=0;swimlaneBody=0;fillColor=none;collapsible=0;dropTarget=0;points=[[0,0.5],[1,0.5]];portConstraint=eastwest;top=0;left=0;right=0;bottom=1;html=1;" parent="HRbyK_xEVIvlZvp6VBce-169" vertex="1">
          <mxGeometry y="60" width="180" height="30" as="geometry" />
        </mxCell>
        <mxCell id="HRbyK_xEVIvlZvp6VBce-174" value="PK,FK2" style="shape=partialRectangle;connectable=0;fillColor=none;top=0;left=0;bottom=0;right=0;fontStyle=1;overflow=hidden;html=1;whiteSpace=wrap;" parent="HRbyK_xEVIvlZvp6VBce-173" vertex="1">
          <mxGeometry width="60" height="30" as="geometry">
            <mxRectangle width="60" height="30" as="alternateBounds" />
          </mxGeometry>
        </mxCell>
        <mxCell id="HRbyK_xEVIvlZvp6VBce-175" value="codigo_grupo_ar" style="shape=partialRectangle;connectable=0;fillColor=none;top=0;left=0;bottom=0;right=0;align=left;spacingLeft=6;fontStyle=5;overflow=hidden;html=1;whiteSpace=wrap;" parent="HRbyK_xEVIvlZvp6VBce-173" vertex="1">
          <mxGeometry x="60" width="120" height="30" as="geometry">
            <mxRectangle width="120" height="30" as="alternateBounds" />
          </mxGeometry>
        </mxCell>
        <mxCell id="HRbyK_xEVIvlZvp6VBce-176" value="" style="shape=tableRow;horizontal=0;startSize=0;swimlaneHead=0;swimlaneBody=0;fillColor=none;collapsible=0;dropTarget=0;points=[[0,0.5],[1,0.5]];portConstraint=eastwest;top=0;left=0;right=0;bottom=0;html=1;" parent="HRbyK_xEVIvlZvp6VBce-169" vertex="1">
          <mxGeometry y="90" width="180" height="30" as="geometry" />
        </mxCell>
        <mxCell id="HRbyK_xEVIvlZvp6VBce-177" value="" style="shape=partialRectangle;connectable=0;fillColor=none;top=0;left=0;bottom=0;right=0;editable=1;overflow=hidden;html=1;whiteSpace=wrap;" parent="HRbyK_xEVIvlZvp6VBce-176" vertex="1">
          <mxGeometry width="60" height="30" as="geometry">
            <mxRectangle width="60" height="30" as="alternateBounds" />
          </mxGeometry>
        </mxCell>
        <mxCell id="HRbyK_xEVIvlZvp6VBce-178" value="fecha_entrada" style="shape=partialRectangle;connectable=0;fillColor=none;top=0;left=0;bottom=0;right=0;align=left;spacingLeft=6;overflow=hidden;html=1;whiteSpace=wrap;" parent="HRbyK_xEVIvlZvp6VBce-176" vertex="1">
          <mxGeometry x="60" width="120" height="30" as="geometry">
            <mxRectangle width="120" height="30" as="alternateBounds" />
          </mxGeometry>
        </mxCell>
        <mxCell id="HRbyK_xEVIvlZvp6VBce-179" value="" style="shape=tableRow;horizontal=0;startSize=0;swimlaneHead=0;swimlaneBody=0;fillColor=none;collapsible=0;dropTarget=0;points=[[0,0.5],[1,0.5]];portConstraint=eastwest;top=0;left=0;right=0;bottom=0;html=1;" parent="HRbyK_xEVIvlZvp6VBce-169" vertex="1">
          <mxGeometry y="120" width="180" height="30" as="geometry" />
        </mxCell>
        <mxCell id="HRbyK_xEVIvlZvp6VBce-180" value="" style="shape=partialRectangle;connectable=0;fillColor=none;top=0;left=0;bottom=0;right=0;editable=1;overflow=hidden;html=1;whiteSpace=wrap;" parent="HRbyK_xEVIvlZvp6VBce-179" vertex="1">
          <mxGeometry width="60" height="30" as="geometry">
            <mxRectangle width="60" height="30" as="alternateBounds" />
          </mxGeometry>
        </mxCell>
        <mxCell id="HRbyK_xEVIvlZvp6VBce-181" value="fecha_salida" style="shape=partialRectangle;connectable=0;fillColor=none;top=0;left=0;bottom=0;right=0;align=left;spacingLeft=6;overflow=hidden;html=1;whiteSpace=wrap;" parent="HRbyK_xEVIvlZvp6VBce-179" vertex="1">
          <mxGeometry x="60" width="120" height="30" as="geometry">
            <mxRectangle width="120" height="30" as="alternateBounds" />
          </mxGeometry>
        </mxCell>
        <mxCell id="HRbyK_xEVIvlZvp6VBce-182" value="" style="endArrow=classic;html=1;rounded=0;exitX=1;exitY=0.5;exitDx=0;exitDy=0;entryX=1;entryY=0.5;entryDx=0;entryDy=0;" parent="1" source="HRbyK_xEVIvlZvp6VBce-9" target="HRbyK_xEVIvlZvp6VBce-170" edge="1">
          <mxGeometry width="50" height="50" relative="1" as="geometry">
            <mxPoint x="749" y="79" as="sourcePoint" />
            <mxPoint x="799" y="29" as="targetPoint" />
            <Array as="points">
              <mxPoint x="790" y="19" />
              <mxPoint x="790" y="209" />
            </Array>
          </mxGeometry>
        </mxCell>
        <mxCell id="HRbyK_xEVIvlZvp6VBce-183" value="" style="endArrow=classic;html=1;rounded=0;exitX=1;exitY=0.5;exitDx=0;exitDy=0;entryX=1;entryY=0.5;entryDx=0;entryDy=0;" parent="1" source="HRbyK_xEVIvlZvp6VBce-9" target="HRbyK_xEVIvlZvp6VBce-157" edge="1">
          <mxGeometry width="50" height="50" relative="1" as="geometry">
            <mxPoint x="796" y="-54" as="sourcePoint" />
            <mxPoint x="846" y="-104" as="targetPoint" />
            <Array as="points">
              <mxPoint x="790" y="19" />
              <mxPoint x="790" y="-171" />
            </Array>
          </mxGeometry>
        </mxCell>
        <mxCell id="HRbyK_xEVIvlZvp6VBce-184" value="Grupos_armados" style="shape=table;startSize=30;container=1;collapsible=1;childLayout=tableLayout;fixedRows=1;rowLines=0;fontStyle=1;align=center;resizeLast=1;html=1;" parent="1" vertex="1">
          <mxGeometry x="370" y="354" width="180" height="120" as="geometry" />
        </mxCell>
        <mxCell id="HRbyK_xEVIvlZvp6VBce-185" value="" style="shape=tableRow;horizontal=0;startSize=0;swimlaneHead=0;swimlaneBody=0;fillColor=none;collapsible=0;dropTarget=0;points=[[0,0.5],[1,0.5]];portConstraint=eastwest;top=0;left=0;right=0;bottom=1;" parent="HRbyK_xEVIvlZvp6VBce-184" vertex="1">
          <mxGeometry y="30" width="180" height="30" as="geometry" />
        </mxCell>
        <mxCell id="HRbyK_xEVIvlZvp6VBce-186" value="PK" style="shape=partialRectangle;connectable=0;fillColor=none;top=0;left=0;bottom=0;right=0;fontStyle=1;overflow=hidden;whiteSpace=wrap;html=1;" parent="HRbyK_xEVIvlZvp6VBce-185" vertex="1">
          <mxGeometry width="30" height="30" as="geometry">
            <mxRectangle width="30" height="30" as="alternateBounds" />
          </mxGeometry>
        </mxCell>
        <mxCell id="HRbyK_xEVIvlZvp6VBce-187" value="codigo" style="shape=partialRectangle;connectable=0;fillColor=none;top=0;left=0;bottom=0;right=0;align=left;spacingLeft=6;fontStyle=5;overflow=hidden;whiteSpace=wrap;html=1;" parent="HRbyK_xEVIvlZvp6VBce-185" vertex="1">
          <mxGeometry x="30" width="150" height="30" as="geometry">
            <mxRectangle width="150" height="30" as="alternateBounds" />
          </mxGeometry>
        </mxCell>
        <mxCell id="HRbyK_xEVIvlZvp6VBce-188" value="" style="shape=tableRow;horizontal=0;startSize=0;swimlaneHead=0;swimlaneBody=0;fillColor=none;collapsible=0;dropTarget=0;points=[[0,0.5],[1,0.5]];portConstraint=eastwest;top=0;left=0;right=0;bottom=0;" parent="HRbyK_xEVIvlZvp6VBce-184" vertex="1">
          <mxGeometry y="60" width="180" height="30" as="geometry" />
        </mxCell>
        <mxCell id="HRbyK_xEVIvlZvp6VBce-189" value="" style="shape=partialRectangle;connectable=0;fillColor=none;top=0;left=0;bottom=0;right=0;editable=1;overflow=hidden;whiteSpace=wrap;html=1;" parent="HRbyK_xEVIvlZvp6VBce-188" vertex="1">
          <mxGeometry width="30" height="30" as="geometry">
            <mxRectangle width="30" height="30" as="alternateBounds" />
          </mxGeometry>
        </mxCell>
        <mxCell id="HRbyK_xEVIvlZvp6VBce-190" value="nombre" style="shape=partialRectangle;connectable=0;fillColor=none;top=0;left=0;bottom=0;right=0;align=left;spacingLeft=6;overflow=hidden;whiteSpace=wrap;html=1;" parent="HRbyK_xEVIvlZvp6VBce-188" vertex="1">
          <mxGeometry x="30" width="150" height="30" as="geometry">
            <mxRectangle width="150" height="30" as="alternateBounds" />
          </mxGeometry>
        </mxCell>
        <mxCell id="mnUXyzlYg-dJGexJbT2p-51" value="" style="shape=tableRow;horizontal=0;startSize=0;swimlaneHead=0;swimlaneBody=0;fillColor=none;collapsible=0;dropTarget=0;points=[[0,0.5],[1,0.5]];portConstraint=eastwest;top=0;left=0;right=0;bottom=0;" vertex="1" parent="HRbyK_xEVIvlZvp6VBce-184">
          <mxGeometry y="90" width="180" height="30" as="geometry" />
        </mxCell>
        <mxCell id="mnUXyzlYg-dJGexJbT2p-52" value="" style="shape=partialRectangle;connectable=0;fillColor=none;top=0;left=0;bottom=0;right=0;editable=1;overflow=hidden;whiteSpace=wrap;html=1;" vertex="1" parent="mnUXyzlYg-dJGexJbT2p-51">
          <mxGeometry width="30" height="30" as="geometry">
            <mxRectangle width="30" height="30" as="alternateBounds" />
          </mxGeometry>
        </mxCell>
        <mxCell id="mnUXyzlYg-dJGexJbT2p-53" value="bajas_totales" style="shape=partialRectangle;connectable=0;fillColor=none;top=0;left=0;bottom=0;right=0;align=left;spacingLeft=6;overflow=hidden;whiteSpace=wrap;html=1;" vertex="1" parent="mnUXyzlYg-dJGexJbT2p-51">
          <mxGeometry x="30" width="150" height="30" as="geometry">
            <mxRectangle width="150" height="30" as="alternateBounds" />
          </mxGeometry>
        </mxCell>
        <mxCell id="HRbyK_xEVIvlZvp6VBce-210" value="" style="endArrow=classic;html=1;rounded=0;exitX=1;exitY=0.5;exitDx=0;exitDy=0;entryX=0;entryY=0.5;entryDx=0;entryDy=0;" parent="1" source="HRbyK_xEVIvlZvp6VBce-185" target="HRbyK_xEVIvlZvp6VBce-173" edge="1">
          <mxGeometry width="50" height="50" relative="1" as="geometry">
            <mxPoint x="733" y="61" as="sourcePoint" />
            <mxPoint x="783" y="11" as="targetPoint" />
            <Array as="points">
              <mxPoint x="570" y="399" />
              <mxPoint x="570" y="239" />
            </Array>
          </mxGeometry>
        </mxCell>
        <mxCell id="mnUXyzlYg-dJGexJbT2p-2" value="dispone" style="shape=rhombus;perimeter=rhombusPerimeter;whiteSpace=wrap;html=1;align=center;" vertex="1" parent="1">
          <mxGeometry x="495" y="870" width="120" height="60" as="geometry" />
        </mxCell>
        <mxCell id="mnUXyzlYg-dJGexJbT2p-4" value="DIVISION" style="shape=ext;margin=3;double=1;whiteSpace=wrap;html=1;align=center;" vertex="1" parent="1">
          <mxGeometry x="505" y="990" width="100" height="40" as="geometry" />
        </mxCell>
        <mxCell id="mnUXyzlYg-dJGexJbT2p-6" value="liderar" style="shape=rhombus;perimeter=rhombusPerimeter;whiteSpace=wrap;html=1;align=center;" vertex="1" parent="1">
          <mxGeometry x="495" y="650" width="120" height="60" as="geometry" />
        </mxCell>
        <mxCell id="mnUXyzlYg-dJGexJbT2p-7" value="LIDER POLITICO" style="shape=ext;margin=3;double=1;whiteSpace=wrap;html=1;align=center;" vertex="1" parent="1">
          <mxGeometry x="505" y="550" width="100" height="40" as="geometry" />
        </mxCell>
        <mxCell id="mnUXyzlYg-dJGexJbT2p-8" value="" style="endArrow=none;html=1;rounded=0;exitX=0.5;exitY=0;exitDx=0;exitDy=0;entryX=0.5;entryY=1;entryDx=0;entryDy=0;" edge="1" parent="1" source="mnUXyzlYg-dJGexJbT2p-2" target="HRbyK_xEVIvlZvp6VBce-143">
          <mxGeometry width="50" height="50" relative="1" as="geometry">
            <mxPoint x="626" y="862" as="sourcePoint" />
            <mxPoint x="676" y="812" as="targetPoint" />
          </mxGeometry>
        </mxCell>
        <mxCell id="mnUXyzlYg-dJGexJbT2p-9" value="" style="endArrow=classic;html=1;rounded=0;exitX=0.5;exitY=1;exitDx=0;exitDy=0;entryX=0.5;entryY=0;entryDx=0;entryDy=0;" edge="1" parent="1" source="mnUXyzlYg-dJGexJbT2p-2" target="mnUXyzlYg-dJGexJbT2p-4">
          <mxGeometry width="50" height="50" relative="1" as="geometry">
            <mxPoint x="626" y="862" as="sourcePoint" />
            <mxPoint x="676" y="812" as="targetPoint" />
          </mxGeometry>
        </mxCell>
        <mxCell id="mnUXyzlYg-dJGexJbT2p-10" value="( 1, N )" style="text;html=1;align=center;verticalAlign=middle;resizable=0;points=[];autosize=1;strokeColor=none;fillColor=none;" vertex="1" parent="1">
          <mxGeometry x="500" y="964" width="55" height="26" as="geometry" />
        </mxCell>
        <mxCell id="mnUXyzlYg-dJGexJbT2p-11" value="( 1, 1 )" style="text;html=1;align=center;verticalAlign=middle;resizable=0;points=[];autosize=1;strokeColor=none;fillColor=none;" vertex="1" parent="1">
          <mxGeometry x="502" y="810" width="53" height="26" as="geometry" />
        </mxCell>
        <mxCell id="mnUXyzlYg-dJGexJbT2p-12" value="1 : N" style="text;html=1;align=center;verticalAlign=middle;resizable=0;points=[];autosize=1;strokeColor=none;fillColor=none;" vertex="1" parent="1">
          <mxGeometry x="615" y="887" width="43" height="26" as="geometry" />
        </mxCell>
        <mxCell id="mnUXyzlYg-dJGexJbT2p-13" value="" style="endArrow=classic;html=1;rounded=0;exitX=0.5;exitY=0;exitDx=0;exitDy=0;entryX=0.5;entryY=1;entryDx=0;entryDy=0;" edge="1" parent="1" source="mnUXyzlYg-dJGexJbT2p-6" target="mnUXyzlYg-dJGexJbT2p-7">
          <mxGeometry width="50" height="50" relative="1" as="geometry">
            <mxPoint x="774" y="824" as="sourcePoint" />
            <mxPoint x="824" y="774" as="targetPoint" />
          </mxGeometry>
        </mxCell>
        <mxCell id="mnUXyzlYg-dJGexJbT2p-14" value="" style="endArrow=none;html=1;rounded=0;entryX=0.5;entryY=1;entryDx=0;entryDy=0;exitX=0.5;exitY=0;exitDx=0;exitDy=0;" edge="1" parent="1" source="HRbyK_xEVIvlZvp6VBce-143" target="mnUXyzlYg-dJGexJbT2p-6">
          <mxGeometry width="50" height="50" relative="1" as="geometry">
            <mxPoint x="774" y="824" as="sourcePoint" />
            <mxPoint x="824" y="774" as="targetPoint" />
          </mxGeometry>
        </mxCell>
        <mxCell id="mnUXyzlYg-dJGexJbT2p-15" value="( 1, 1 )" style="text;html=1;align=center;verticalAlign=middle;resizable=0;points=[];autosize=1;strokeColor=none;fillColor=none;" vertex="1" parent="1">
          <mxGeometry x="502" y="744" width="53" height="26" as="geometry" />
        </mxCell>
        <mxCell id="mnUXyzlYg-dJGexJbT2p-16" value="( 1, N )" style="text;html=1;align=center;verticalAlign=middle;resizable=0;points=[];autosize=1;strokeColor=none;fillColor=none;" vertex="1" parent="1">
          <mxGeometry x="500" y="590" width="55" height="26" as="geometry" />
        </mxCell>
        <mxCell id="mnUXyzlYg-dJGexJbT2p-17" value="1 : N" style="text;html=1;align=center;verticalAlign=middle;resizable=0;points=[];autosize=1;strokeColor=none;fillColor=none;" vertex="1" parent="1">
          <mxGeometry x="615" y="667" width="43" height="26" as="geometry" />
        </mxCell>
        <mxCell id="mnUXyzlYg-dJGexJbT2p-18" value="Divisiones" style="shape=table;startSize=30;container=1;collapsible=1;childLayout=tableLayout;fixedRows=1;rowLines=0;fontStyle=1;align=center;resizeLast=1;html=1;" vertex="1" parent="1">
          <mxGeometry x="150" y="224" width="180" height="240" as="geometry" />
        </mxCell>
        <mxCell id="mnUXyzlYg-dJGexJbT2p-19" value="" style="shape=tableRow;horizontal=0;startSize=0;swimlaneHead=0;swimlaneBody=0;fillColor=none;collapsible=0;dropTarget=0;points=[[0,0.5],[1,0.5]];portConstraint=eastwest;top=0;left=0;right=0;bottom=1;" vertex="1" parent="mnUXyzlYg-dJGexJbT2p-18">
          <mxGeometry y="30" width="180" height="30" as="geometry" />
        </mxCell>
        <mxCell id="mnUXyzlYg-dJGexJbT2p-20" value="PK" style="shape=partialRectangle;connectable=0;fillColor=none;top=0;left=0;bottom=0;right=0;fontStyle=1;overflow=hidden;whiteSpace=wrap;html=1;" vertex="1" parent="mnUXyzlYg-dJGexJbT2p-19">
          <mxGeometry width="30" height="30" as="geometry">
            <mxRectangle width="30" height="30" as="alternateBounds" />
          </mxGeometry>
        </mxCell>
        <mxCell id="mnUXyzlYg-dJGexJbT2p-21" value="id" style="shape=partialRectangle;connectable=0;fillColor=none;top=0;left=0;bottom=0;right=0;align=left;spacingLeft=6;fontStyle=5;overflow=hidden;whiteSpace=wrap;html=1;" vertex="1" parent="mnUXyzlYg-dJGexJbT2p-19">
          <mxGeometry x="30" width="150" height="30" as="geometry">
            <mxRectangle width="150" height="30" as="alternateBounds" />
          </mxGeometry>
        </mxCell>
        <mxCell id="mnUXyzlYg-dJGexJbT2p-41" value="" style="shape=tableRow;horizontal=0;startSize=0;swimlaneHead=0;swimlaneBody=0;fillColor=none;collapsible=0;dropTarget=0;points=[[0,0.5],[1,0.5]];portConstraint=eastwest;top=0;left=0;right=0;bottom=0;" vertex="1" parent="mnUXyzlYg-dJGexJbT2p-18">
          <mxGeometry y="60" width="180" height="30" as="geometry" />
        </mxCell>
        <mxCell id="mnUXyzlYg-dJGexJbT2p-42" value="FK" style="shape=partialRectangle;connectable=0;fillColor=none;top=0;left=0;bottom=0;right=0;fontStyle=0;overflow=hidden;whiteSpace=wrap;html=1;" vertex="1" parent="mnUXyzlYg-dJGexJbT2p-41">
          <mxGeometry width="30" height="30" as="geometry">
            <mxRectangle width="30" height="30" as="alternateBounds" />
          </mxGeometry>
        </mxCell>
        <mxCell id="mnUXyzlYg-dJGexJbT2p-43" value="codigo_grupo_armado" style="shape=partialRectangle;connectable=0;fillColor=none;top=0;left=0;bottom=0;right=0;align=left;spacingLeft=6;fontStyle=0;overflow=hidden;whiteSpace=wrap;html=1;" vertex="1" parent="mnUXyzlYg-dJGexJbT2p-41">
          <mxGeometry x="30" width="150" height="30" as="geometry">
            <mxRectangle width="150" height="30" as="alternateBounds" />
          </mxGeometry>
        </mxCell>
        <mxCell id="mnUXyzlYg-dJGexJbT2p-22" value="" style="shape=tableRow;horizontal=0;startSize=0;swimlaneHead=0;swimlaneBody=0;fillColor=none;collapsible=0;dropTarget=0;points=[[0,0.5],[1,0.5]];portConstraint=eastwest;top=0;left=0;right=0;bottom=0;" vertex="1" parent="mnUXyzlYg-dJGexJbT2p-18">
          <mxGeometry y="90" width="180" height="30" as="geometry" />
        </mxCell>
        <mxCell id="mnUXyzlYg-dJGexJbT2p-23" value="" style="shape=partialRectangle;connectable=0;fillColor=none;top=0;left=0;bottom=0;right=0;editable=1;overflow=hidden;whiteSpace=wrap;html=1;" vertex="1" parent="mnUXyzlYg-dJGexJbT2p-22">
          <mxGeometry width="30" height="30" as="geometry">
            <mxRectangle width="30" height="30" as="alternateBounds" />
          </mxGeometry>
        </mxCell>
        <mxCell id="mnUXyzlYg-dJGexJbT2p-24" value="barcos" style="shape=partialRectangle;connectable=0;fillColor=none;top=0;left=0;bottom=0;right=0;align=left;spacingLeft=6;overflow=hidden;whiteSpace=wrap;html=1;" vertex="1" parent="mnUXyzlYg-dJGexJbT2p-22">
          <mxGeometry x="30" width="150" height="30" as="geometry">
            <mxRectangle width="150" height="30" as="alternateBounds" />
          </mxGeometry>
        </mxCell>
        <mxCell id="mnUXyzlYg-dJGexJbT2p-25" value="" style="shape=tableRow;horizontal=0;startSize=0;swimlaneHead=0;swimlaneBody=0;fillColor=none;collapsible=0;dropTarget=0;points=[[0,0.5],[1,0.5]];portConstraint=eastwest;top=0;left=0;right=0;bottom=0;" vertex="1" parent="mnUXyzlYg-dJGexJbT2p-18">
          <mxGeometry y="120" width="180" height="30" as="geometry" />
        </mxCell>
        <mxCell id="mnUXyzlYg-dJGexJbT2p-26" value="" style="shape=partialRectangle;connectable=0;fillColor=none;top=0;left=0;bottom=0;right=0;editable=1;overflow=hidden;whiteSpace=wrap;html=1;" vertex="1" parent="mnUXyzlYg-dJGexJbT2p-25">
          <mxGeometry width="30" height="30" as="geometry">
            <mxRectangle width="30" height="30" as="alternateBounds" />
          </mxGeometry>
        </mxCell>
        <mxCell id="mnUXyzlYg-dJGexJbT2p-27" value="tanques" style="shape=partialRectangle;connectable=0;fillColor=none;top=0;left=0;bottom=0;right=0;align=left;spacingLeft=6;overflow=hidden;whiteSpace=wrap;html=1;" vertex="1" parent="mnUXyzlYg-dJGexJbT2p-25">
          <mxGeometry x="30" width="150" height="30" as="geometry">
            <mxRectangle width="150" height="30" as="alternateBounds" />
          </mxGeometry>
        </mxCell>
        <mxCell id="mnUXyzlYg-dJGexJbT2p-28" value="" style="shape=tableRow;horizontal=0;startSize=0;swimlaneHead=0;swimlaneBody=0;fillColor=none;collapsible=0;dropTarget=0;points=[[0,0.5],[1,0.5]];portConstraint=eastwest;top=0;left=0;right=0;bottom=0;" vertex="1" parent="mnUXyzlYg-dJGexJbT2p-18">
          <mxGeometry y="150" width="180" height="30" as="geometry" />
        </mxCell>
        <mxCell id="mnUXyzlYg-dJGexJbT2p-29" value="" style="shape=partialRectangle;connectable=0;fillColor=none;top=0;left=0;bottom=0;right=0;editable=1;overflow=hidden;whiteSpace=wrap;html=1;" vertex="1" parent="mnUXyzlYg-dJGexJbT2p-28">
          <mxGeometry width="30" height="30" as="geometry">
            <mxRectangle width="30" height="30" as="alternateBounds" />
          </mxGeometry>
        </mxCell>
        <mxCell id="mnUXyzlYg-dJGexJbT2p-30" value="aviones" style="shape=partialRectangle;connectable=0;fillColor=none;top=0;left=0;bottom=0;right=0;align=left;spacingLeft=6;overflow=hidden;whiteSpace=wrap;html=1;" vertex="1" parent="mnUXyzlYg-dJGexJbT2p-28">
          <mxGeometry x="30" width="150" height="30" as="geometry">
            <mxRectangle width="150" height="30" as="alternateBounds" />
          </mxGeometry>
        </mxCell>
        <mxCell id="mnUXyzlYg-dJGexJbT2p-34" value="" style="shape=tableRow;horizontal=0;startSize=0;swimlaneHead=0;swimlaneBody=0;fillColor=none;collapsible=0;dropTarget=0;points=[[0,0.5],[1,0.5]];portConstraint=eastwest;top=0;left=0;right=0;bottom=0;" vertex="1" parent="mnUXyzlYg-dJGexJbT2p-18">
          <mxGeometry y="180" width="180" height="30" as="geometry" />
        </mxCell>
        <mxCell id="mnUXyzlYg-dJGexJbT2p-35" value="" style="shape=partialRectangle;connectable=0;fillColor=none;top=0;left=0;bottom=0;right=0;editable=1;overflow=hidden;whiteSpace=wrap;html=1;" vertex="1" parent="mnUXyzlYg-dJGexJbT2p-34">
          <mxGeometry width="30" height="30" as="geometry">
            <mxRectangle width="30" height="30" as="alternateBounds" />
          </mxGeometry>
        </mxCell>
        <mxCell id="mnUXyzlYg-dJGexJbT2p-36" value="personal" style="shape=partialRectangle;connectable=0;fillColor=none;top=0;left=0;bottom=0;right=0;align=left;spacingLeft=6;overflow=hidden;whiteSpace=wrap;html=1;" vertex="1" parent="mnUXyzlYg-dJGexJbT2p-34">
          <mxGeometry x="30" width="150" height="30" as="geometry">
            <mxRectangle width="150" height="30" as="alternateBounds" />
          </mxGeometry>
        </mxCell>
        <mxCell id="mnUXyzlYg-dJGexJbT2p-37" value="" style="shape=tableRow;horizontal=0;startSize=0;swimlaneHead=0;swimlaneBody=0;fillColor=none;collapsible=0;dropTarget=0;points=[[0,0.5],[1,0.5]];portConstraint=eastwest;top=0;left=0;right=0;bottom=0;" vertex="1" parent="mnUXyzlYg-dJGexJbT2p-18">
          <mxGeometry y="210" width="180" height="30" as="geometry" />
        </mxCell>
        <mxCell id="mnUXyzlYg-dJGexJbT2p-38" value="" style="shape=partialRectangle;connectable=0;fillColor=none;top=0;left=0;bottom=0;right=0;editable=1;overflow=hidden;whiteSpace=wrap;html=1;" vertex="1" parent="mnUXyzlYg-dJGexJbT2p-37">
          <mxGeometry width="30" height="30" as="geometry">
            <mxRectangle width="30" height="30" as="alternateBounds" />
          </mxGeometry>
        </mxCell>
        <mxCell id="mnUXyzlYg-dJGexJbT2p-39" value="bajas" style="shape=partialRectangle;connectable=0;fillColor=none;top=0;left=0;bottom=0;right=0;align=left;spacingLeft=6;overflow=hidden;whiteSpace=wrap;html=1;" vertex="1" parent="mnUXyzlYg-dJGexJbT2p-37">
          <mxGeometry x="30" width="150" height="30" as="geometry">
            <mxRectangle width="150" height="30" as="alternateBounds" />
          </mxGeometry>
        </mxCell>
        <mxCell id="mnUXyzlYg-dJGexJbT2p-56" value="suministra" style="shape=rhombus;perimeter=rhombusPerimeter;whiteSpace=wrap;html=1;align=center;" vertex="1" parent="1">
          <mxGeometry x="265" y="760" width="120" height="60" as="geometry" />
        </mxCell>
        <mxCell id="mnUXyzlYg-dJGexJbT2p-58" value="TIPO DE ARMA" style="whiteSpace=wrap;html=1;align=center;" vertex="1" parent="1">
          <mxGeometry x="45" y="710" width="100" height="40" as="geometry" />
        </mxCell>
        <mxCell id="mnUXyzlYg-dJGexJbT2p-59" value="TRAFICANTE" style="whiteSpace=wrap;html=1;align=center;" vertex="1" parent="1">
          <mxGeometry x="45" y="830" width="100" height="40" as="geometry" />
        </mxCell>
        <mxCell id="mnUXyzlYg-dJGexJbT2p-60" value="" style="endArrow=classic;html=1;rounded=0;exitX=1;exitY=0.5;exitDx=0;exitDy=0;entryX=0;entryY=0.5;entryDx=0;entryDy=0;" edge="1" parent="1" source="mnUXyzlYg-dJGexJbT2p-56" target="HRbyK_xEVIvlZvp6VBce-143">
          <mxGeometry width="50" height="50" relative="1" as="geometry">
            <mxPoint x="305" y="782" as="sourcePoint" />
            <mxPoint x="355" y="732" as="targetPoint" />
          </mxGeometry>
        </mxCell>
        <mxCell id="mnUXyzlYg-dJGexJbT2p-61" value="" style="endArrow=classic;html=1;rounded=0;exitX=0.5;exitY=0;exitDx=0;exitDy=0;entryX=1;entryY=0.5;entryDx=0;entryDy=0;" edge="1" parent="1" source="mnUXyzlYg-dJGexJbT2p-56" target="mnUXyzlYg-dJGexJbT2p-58">
          <mxGeometry width="50" height="50" relative="1" as="geometry">
            <mxPoint x="305" y="782" as="sourcePoint" />
            <mxPoint x="355" y="732" as="targetPoint" />
            <Array as="points">
              <mxPoint x="325" y="730" />
            </Array>
          </mxGeometry>
        </mxCell>
        <mxCell id="mnUXyzlYg-dJGexJbT2p-62" value="" style="endArrow=classic;html=1;rounded=0;exitX=0.5;exitY=1;exitDx=0;exitDy=0;entryX=1;entryY=0.5;entryDx=0;entryDy=0;" edge="1" parent="1" source="mnUXyzlYg-dJGexJbT2p-56" target="mnUXyzlYg-dJGexJbT2p-59">
          <mxGeometry width="50" height="50" relative="1" as="geometry">
            <mxPoint x="305" y="782" as="sourcePoint" />
            <mxPoint x="355" y="732" as="targetPoint" />
            <Array as="points">
              <mxPoint x="325" y="850" />
            </Array>
          </mxGeometry>
        </mxCell>
        <mxCell id="mnUXyzlYg-dJGexJbT2p-63" value="( 1, N )" style="text;html=1;align=center;verticalAlign=middle;resizable=0;points=[];autosize=1;strokeColor=none;fillColor=none;" vertex="1" parent="1">
          <mxGeometry x="145" y="704" width="55" height="26" as="geometry" />
        </mxCell>
        <mxCell id="mnUXyzlYg-dJGexJbT2p-64" value="( 1, N )" style="text;html=1;align=center;verticalAlign=middle;resizable=0;points=[];autosize=1;strokeColor=none;fillColor=none;" vertex="1" parent="1">
          <mxGeometry x="145" y="850" width="55" height="26" as="geometry" />
        </mxCell>
        <mxCell id="mnUXyzlYg-dJGexJbT2p-65" value="( 1, N )" style="text;html=1;align=center;verticalAlign=middle;resizable=0;points=[];autosize=1;strokeColor=none;fillColor=none;" vertex="1" parent="1">
          <mxGeometry x="450" y="790" width="55" height="26" as="geometry" />
        </mxCell>
        <mxCell id="mnUXyzlYg-dJGexJbT2p-66" value="N : M : P" style="text;html=1;align=center;verticalAlign=middle;resizable=0;points=[];autosize=1;strokeColor=none;fillColor=none;" vertex="1" parent="1">
          <mxGeometry x="200" y="777" width="65" height="26" as="geometry" />
        </mxCell>
        <mxCell id="mnUXyzlYg-dJGexJbT2p-69" value="puede&lt;div&gt;suministrar&lt;/div&gt;" style="shape=rhombus;perimeter=rhombusPerimeter;whiteSpace=wrap;html=1;align=center;" vertex="1" parent="1">
          <mxGeometry x="-195" y="760" width="120" height="60" as="geometry" />
        </mxCell>
        <mxCell id="mnUXyzlYg-dJGexJbT2p-71" value="" style="endArrow=classic;html=1;rounded=0;exitX=0.5;exitY=0;exitDx=0;exitDy=0;entryX=0;entryY=0.5;entryDx=0;entryDy=0;" edge="1" parent="1" source="mnUXyzlYg-dJGexJbT2p-69" target="mnUXyzlYg-dJGexJbT2p-58">
          <mxGeometry width="50" height="50" relative="1" as="geometry">
            <mxPoint x="-135" y="760" as="sourcePoint" />
            <mxPoint x="-315" y="730" as="targetPoint" />
            <Array as="points">
              <mxPoint x="-135" y="730" />
            </Array>
          </mxGeometry>
        </mxCell>
        <mxCell id="mnUXyzlYg-dJGexJbT2p-72" value="" style="endArrow=classic;html=1;rounded=0;exitX=0.5;exitY=1;exitDx=0;exitDy=0;entryX=0;entryY=0.5;entryDx=0;entryDy=0;" edge="1" parent="1" source="mnUXyzlYg-dJGexJbT2p-69" target="mnUXyzlYg-dJGexJbT2p-59">
          <mxGeometry width="50" height="50" relative="1" as="geometry">
            <mxPoint x="-135" y="820" as="sourcePoint" />
            <mxPoint x="-315" y="850" as="targetPoint" />
            <Array as="points">
              <mxPoint x="-135" y="850" />
            </Array>
          </mxGeometry>
        </mxCell>
        <mxCell id="mnUXyzlYg-dJGexJbT2p-73" value="( 0, N )" style="text;html=1;align=center;verticalAlign=middle;resizable=0;points=[];autosize=1;strokeColor=none;fillColor=none;" vertex="1" parent="1">
          <mxGeometry x="-10" y="704" width="55" height="26" as="geometry" />
        </mxCell>
        <mxCell id="mnUXyzlYg-dJGexJbT2p-74" value="( 0, N )" style="text;html=1;align=center;verticalAlign=middle;resizable=0;points=[];autosize=1;strokeColor=none;fillColor=none;" vertex="1" parent="1">
          <mxGeometry x="-10" y="850" width="55" height="26" as="geometry" />
        </mxCell>
        <mxCell id="mnUXyzlYg-dJGexJbT2p-75" value="N : M" style="text;html=1;align=center;verticalAlign=middle;resizable=0;points=[];autosize=1;strokeColor=none;fillColor=none;" vertex="1" parent="1">
          <mxGeometry x="-75" y="777" width="47" height="26" as="geometry" />
        </mxCell>
        <mxCell id="mnUXyzlYg-dJGexJbT2p-76" value="Lideres_politicos" style="shape=table;startSize=30;container=1;collapsible=1;childLayout=tableLayout;fixedRows=1;rowLines=0;fontStyle=1;align=center;resizeLast=1;html=1;" vertex="1" parent="1">
          <mxGeometry x="370" y="194" width="180" height="120" as="geometry" />
        </mxCell>
        <mxCell id="mnUXyzlYg-dJGexJbT2p-77" value="" style="shape=tableRow;horizontal=0;startSize=0;swimlaneHead=0;swimlaneBody=0;fillColor=none;collapsible=0;dropTarget=0;points=[[0,0.5],[1,0.5]];portConstraint=eastwest;top=0;left=0;right=0;bottom=1;" vertex="1" parent="mnUXyzlYg-dJGexJbT2p-76">
          <mxGeometry y="30" width="180" height="30" as="geometry" />
        </mxCell>
        <mxCell id="mnUXyzlYg-dJGexJbT2p-78" value="PK" style="shape=partialRectangle;connectable=0;fillColor=none;top=0;left=0;bottom=0;right=0;fontStyle=1;overflow=hidden;whiteSpace=wrap;html=1;" vertex="1" parent="mnUXyzlYg-dJGexJbT2p-77">
          <mxGeometry width="30" height="30" as="geometry">
            <mxRectangle width="30" height="30" as="alternateBounds" />
          </mxGeometry>
        </mxCell>
        <mxCell id="mnUXyzlYg-dJGexJbT2p-79" value="nombre" style="shape=partialRectangle;connectable=0;fillColor=none;top=0;left=0;bottom=0;right=0;align=left;spacingLeft=6;fontStyle=5;overflow=hidden;whiteSpace=wrap;html=1;" vertex="1" parent="mnUXyzlYg-dJGexJbT2p-77">
          <mxGeometry x="30" width="150" height="30" as="geometry">
            <mxRectangle width="150" height="30" as="alternateBounds" />
          </mxGeometry>
        </mxCell>
        <mxCell id="mnUXyzlYg-dJGexJbT2p-90" value="" style="shape=tableRow;horizontal=0;startSize=0;swimlaneHead=0;swimlaneBody=0;fillColor=none;collapsible=0;dropTarget=0;points=[[0,0.5],[1,0.5]];portConstraint=eastwest;top=0;left=0;right=0;bottom=0;" vertex="1" parent="mnUXyzlYg-dJGexJbT2p-76">
          <mxGeometry y="60" width="180" height="30" as="geometry" />
        </mxCell>
        <mxCell id="mnUXyzlYg-dJGexJbT2p-91" value="FK" style="shape=partialRectangle;connectable=0;fillColor=none;top=0;left=0;bottom=0;right=0;fontStyle=0;overflow=hidden;whiteSpace=wrap;html=1;" vertex="1" parent="mnUXyzlYg-dJGexJbT2p-90">
          <mxGeometry width="30" height="30" as="geometry">
            <mxRectangle width="30" height="30" as="alternateBounds" />
          </mxGeometry>
        </mxCell>
        <mxCell id="mnUXyzlYg-dJGexJbT2p-92" value="codigo_grupo_armado" style="shape=partialRectangle;connectable=0;fillColor=none;top=0;left=0;bottom=0;right=0;align=left;spacingLeft=6;fontStyle=0;overflow=hidden;whiteSpace=wrap;html=1;" vertex="1" parent="mnUXyzlYg-dJGexJbT2p-90">
          <mxGeometry x="30" width="150" height="30" as="geometry">
            <mxRectangle width="150" height="30" as="alternateBounds" />
          </mxGeometry>
        </mxCell>
        <mxCell id="mnUXyzlYg-dJGexJbT2p-80" value="" style="shape=tableRow;horizontal=0;startSize=0;swimlaneHead=0;swimlaneBody=0;fillColor=none;collapsible=0;dropTarget=0;points=[[0,0.5],[1,0.5]];portConstraint=eastwest;top=0;left=0;right=0;bottom=0;" vertex="1" parent="mnUXyzlYg-dJGexJbT2p-76">
          <mxGeometry y="90" width="180" height="30" as="geometry" />
        </mxCell>
        <mxCell id="mnUXyzlYg-dJGexJbT2p-81" value="" style="shape=partialRectangle;connectable=0;fillColor=none;top=0;left=0;bottom=0;right=0;editable=1;overflow=hidden;whiteSpace=wrap;html=1;" vertex="1" parent="mnUXyzlYg-dJGexJbT2p-80">
          <mxGeometry width="30" height="30" as="geometry">
            <mxRectangle width="30" height="30" as="alternateBounds" />
          </mxGeometry>
        </mxCell>
        <mxCell id="mnUXyzlYg-dJGexJbT2p-82" value="descripcion_apoyos" style="shape=partialRectangle;connectable=0;fillColor=none;top=0;left=0;bottom=0;right=0;align=left;spacingLeft=6;overflow=hidden;whiteSpace=wrap;html=1;" vertex="1" parent="mnUXyzlYg-dJGexJbT2p-80">
          <mxGeometry x="30" width="150" height="30" as="geometry">
            <mxRectangle width="150" height="30" as="alternateBounds" />
          </mxGeometry>
        </mxCell>
        <mxCell id="mnUXyzlYg-dJGexJbT2p-93" value="" style="endArrow=classic;html=1;rounded=0;exitX=0;exitY=0.5;exitDx=0;exitDy=0;entryX=0;entryY=0.5;entryDx=0;entryDy=0;" edge="1" parent="1" source="HRbyK_xEVIvlZvp6VBce-185" target="mnUXyzlYg-dJGexJbT2p-90">
          <mxGeometry width="50" height="50" relative="1" as="geometry">
            <mxPoint x="627" y="359" as="sourcePoint" />
            <mxPoint x="677" y="309" as="targetPoint" />
            <Array as="points">
              <mxPoint x="350" y="399" />
              <mxPoint x="350" y="269" />
            </Array>
          </mxGeometry>
        </mxCell>
        <mxCell id="mnUXyzlYg-dJGexJbT2p-94" value="Organizaciones" style="shape=table;startSize=30;container=1;collapsible=1;childLayout=tableLayout;fixedRows=1;rowLines=0;fontStyle=1;align=center;resizeLast=1;html=1;" vertex="1" parent="1">
          <mxGeometry x="370" y="-216" width="180" height="210" as="geometry" />
        </mxCell>
        <mxCell id="mnUXyzlYg-dJGexJbT2p-95" value="" style="shape=tableRow;horizontal=0;startSize=0;swimlaneHead=0;swimlaneBody=0;fillColor=none;collapsible=0;dropTarget=0;points=[[0,0.5],[1,0.5]];portConstraint=eastwest;top=0;left=0;right=0;bottom=1;" vertex="1" parent="mnUXyzlYg-dJGexJbT2p-94">
          <mxGeometry y="30" width="180" height="30" as="geometry" />
        </mxCell>
        <mxCell id="mnUXyzlYg-dJGexJbT2p-96" value="PK" style="shape=partialRectangle;connectable=0;fillColor=none;top=0;left=0;bottom=0;right=0;fontStyle=1;overflow=hidden;whiteSpace=wrap;html=1;" vertex="1" parent="mnUXyzlYg-dJGexJbT2p-95">
          <mxGeometry width="30" height="30" as="geometry">
            <mxRectangle width="30" height="30" as="alternateBounds" />
          </mxGeometry>
        </mxCell>
        <mxCell id="mnUXyzlYg-dJGexJbT2p-97" value="codigo" style="shape=partialRectangle;connectable=0;fillColor=none;top=0;left=0;bottom=0;right=0;align=left;spacingLeft=6;fontStyle=5;overflow=hidden;whiteSpace=wrap;html=1;" vertex="1" parent="mnUXyzlYg-dJGexJbT2p-95">
          <mxGeometry x="30" width="150" height="30" as="geometry">
            <mxRectangle width="150" height="30" as="alternateBounds" />
          </mxGeometry>
        </mxCell>
        <mxCell id="mnUXyzlYg-dJGexJbT2p-98" value="" style="shape=tableRow;horizontal=0;startSize=0;swimlaneHead=0;swimlaneBody=0;fillColor=none;collapsible=0;dropTarget=0;points=[[0,0.5],[1,0.5]];portConstraint=eastwest;top=0;left=0;right=0;bottom=0;" vertex="1" parent="mnUXyzlYg-dJGexJbT2p-94">
          <mxGeometry y="60" width="180" height="30" as="geometry" />
        </mxCell>
        <mxCell id="mnUXyzlYg-dJGexJbT2p-99" value="" style="shape=partialRectangle;connectable=0;fillColor=none;top=0;left=0;bottom=0;right=0;editable=1;overflow=hidden;whiteSpace=wrap;html=1;" vertex="1" parent="mnUXyzlYg-dJGexJbT2p-98">
          <mxGeometry width="30" height="30" as="geometry">
            <mxRectangle width="30" height="30" as="alternateBounds" />
          </mxGeometry>
        </mxCell>
        <mxCell id="mnUXyzlYg-dJGexJbT2p-100" value="nombre" style="shape=partialRectangle;connectable=0;fillColor=none;top=0;left=0;bottom=0;right=0;align=left;spacingLeft=6;overflow=hidden;whiteSpace=wrap;html=1;" vertex="1" parent="mnUXyzlYg-dJGexJbT2p-98">
          <mxGeometry x="30" width="150" height="30" as="geometry">
            <mxRectangle width="150" height="30" as="alternateBounds" />
          </mxGeometry>
        </mxCell>
        <mxCell id="mnUXyzlYg-dJGexJbT2p-101" value="" style="shape=tableRow;horizontal=0;startSize=0;swimlaneHead=0;swimlaneBody=0;fillColor=none;collapsible=0;dropTarget=0;points=[[0,0.5],[1,0.5]];portConstraint=eastwest;top=0;left=0;right=0;bottom=0;" vertex="1" parent="mnUXyzlYg-dJGexJbT2p-94">
          <mxGeometry y="90" width="180" height="30" as="geometry" />
        </mxCell>
        <mxCell id="mnUXyzlYg-dJGexJbT2p-102" value="" style="shape=partialRectangle;connectable=0;fillColor=none;top=0;left=0;bottom=0;right=0;editable=1;overflow=hidden;whiteSpace=wrap;html=1;" vertex="1" parent="mnUXyzlYg-dJGexJbT2p-101">
          <mxGeometry width="30" height="30" as="geometry">
            <mxRectangle width="30" height="30" as="alternateBounds" />
          </mxGeometry>
        </mxCell>
        <mxCell id="mnUXyzlYg-dJGexJbT2p-103" value="tipo" style="shape=partialRectangle;connectable=0;fillColor=none;top=0;left=0;bottom=0;right=0;align=left;spacingLeft=6;overflow=hidden;whiteSpace=wrap;html=1;" vertex="1" parent="mnUXyzlYg-dJGexJbT2p-101">
          <mxGeometry x="30" width="150" height="30" as="geometry">
            <mxRectangle width="150" height="30" as="alternateBounds" />
          </mxGeometry>
        </mxCell>
        <mxCell id="mnUXyzlYg-dJGexJbT2p-104" value="" style="shape=tableRow;horizontal=0;startSize=0;swimlaneHead=0;swimlaneBody=0;fillColor=none;collapsible=0;dropTarget=0;points=[[0,0.5],[1,0.5]];portConstraint=eastwest;top=0;left=0;right=0;bottom=0;" vertex="1" parent="mnUXyzlYg-dJGexJbT2p-94">
          <mxGeometry y="120" width="180" height="30" as="geometry" />
        </mxCell>
        <mxCell id="mnUXyzlYg-dJGexJbT2p-105" value="" style="shape=partialRectangle;connectable=0;fillColor=none;top=0;left=0;bottom=0;right=0;editable=1;overflow=hidden;whiteSpace=wrap;html=1;" vertex="1" parent="mnUXyzlYg-dJGexJbT2p-104">
          <mxGeometry width="30" height="30" as="geometry">
            <mxRectangle width="30" height="30" as="alternateBounds" />
          </mxGeometry>
        </mxCell>
        <mxCell id="mnUXyzlYg-dJGexJbT2p-106" value="dependencia" style="shape=partialRectangle;connectable=0;fillColor=none;top=0;left=0;bottom=0;right=0;align=left;spacingLeft=6;overflow=hidden;whiteSpace=wrap;html=1;" vertex="1" parent="mnUXyzlYg-dJGexJbT2p-104">
          <mxGeometry x="30" width="150" height="30" as="geometry">
            <mxRectangle width="150" height="30" as="alternateBounds" />
          </mxGeometry>
        </mxCell>
        <mxCell id="mnUXyzlYg-dJGexJbT2p-108" value="" style="shape=tableRow;horizontal=0;startSize=0;swimlaneHead=0;swimlaneBody=0;fillColor=none;collapsible=0;dropTarget=0;points=[[0,0.5],[1,0.5]];portConstraint=eastwest;top=0;left=0;right=0;bottom=0;" vertex="1" parent="mnUXyzlYg-dJGexJbT2p-94">
          <mxGeometry y="150" width="180" height="30" as="geometry" />
        </mxCell>
        <mxCell id="mnUXyzlYg-dJGexJbT2p-109" value="" style="shape=partialRectangle;connectable=0;fillColor=none;top=0;left=0;bottom=0;right=0;editable=1;overflow=hidden;whiteSpace=wrap;html=1;" vertex="1" parent="mnUXyzlYg-dJGexJbT2p-108">
          <mxGeometry width="30" height="30" as="geometry">
            <mxRectangle width="30" height="30" as="alternateBounds" />
          </mxGeometry>
        </mxCell>
        <mxCell id="mnUXyzlYg-dJGexJbT2p-110" value="personal_desplegado" style="shape=partialRectangle;connectable=0;fillColor=none;top=0;left=0;bottom=0;right=0;align=left;spacingLeft=6;overflow=hidden;whiteSpace=wrap;html=1;" vertex="1" parent="mnUXyzlYg-dJGexJbT2p-108">
          <mxGeometry x="30" width="150" height="30" as="geometry">
            <mxRectangle width="150" height="30" as="alternateBounds" />
          </mxGeometry>
        </mxCell>
        <mxCell id="mnUXyzlYg-dJGexJbT2p-111" value="" style="shape=tableRow;horizontal=0;startSize=0;swimlaneHead=0;swimlaneBody=0;fillColor=none;collapsible=0;dropTarget=0;points=[[0,0.5],[1,0.5]];portConstraint=eastwest;top=0;left=0;right=0;bottom=0;" vertex="1" parent="mnUXyzlYg-dJGexJbT2p-94">
          <mxGeometry y="180" width="180" height="30" as="geometry" />
        </mxCell>
        <mxCell id="mnUXyzlYg-dJGexJbT2p-112" value="" style="shape=partialRectangle;connectable=0;fillColor=none;top=0;left=0;bottom=0;right=0;editable=1;overflow=hidden;whiteSpace=wrap;html=1;" vertex="1" parent="mnUXyzlYg-dJGexJbT2p-111">
          <mxGeometry width="30" height="30" as="geometry">
            <mxRectangle width="30" height="30" as="alternateBounds" />
          </mxGeometry>
        </mxCell>
        <mxCell id="mnUXyzlYg-dJGexJbT2p-113" value="ayuda" style="shape=partialRectangle;connectable=0;fillColor=none;top=0;left=0;bottom=0;right=0;align=left;spacingLeft=6;overflow=hidden;whiteSpace=wrap;html=1;" vertex="1" parent="mnUXyzlYg-dJGexJbT2p-111">
          <mxGeometry x="30" width="150" height="30" as="geometry">
            <mxRectangle width="150" height="30" as="alternateBounds" />
          </mxGeometry>
        </mxCell>
        <mxCell id="mnUXyzlYg-dJGexJbT2p-107" value="" style="endArrow=classic;html=1;rounded=0;exitX=1;exitY=0.5;exitDx=0;exitDy=0;entryX=0;entryY=0.5;entryDx=0;entryDy=0;" edge="1" parent="1" source="mnUXyzlYg-dJGexJbT2p-95" target="HRbyK_xEVIvlZvp6VBce-160">
          <mxGeometry width="50" height="50" relative="1" as="geometry">
            <mxPoint x="550" y="-171" as="sourcePoint" />
            <mxPoint x="590" y="-111" as="targetPoint" />
            <Array as="points">
              <mxPoint x="570" y="-171" />
              <mxPoint x="570" y="-141" />
            </Array>
          </mxGeometry>
        </mxCell>
        <mxCell id="mnUXyzlYg-dJGexJbT2p-114" value="Lideres_poli_Organizaciones" style="shape=table;startSize=30;container=1;collapsible=1;childLayout=tableLayout;fixedRows=1;rowLines=0;fontStyle=1;align=center;resizeLast=1;html=1;whiteSpace=wrap;" vertex="1" parent="1">
          <mxGeometry x="370" y="34" width="180" height="120" as="geometry" />
        </mxCell>
        <mxCell id="mnUXyzlYg-dJGexJbT2p-115" value="" style="shape=tableRow;horizontal=0;startSize=0;swimlaneHead=0;swimlaneBody=0;fillColor=none;collapsible=0;dropTarget=0;points=[[0,0.5],[1,0.5]];portConstraint=eastwest;top=0;left=0;right=0;bottom=0;html=1;" vertex="1" parent="mnUXyzlYg-dJGexJbT2p-114">
          <mxGeometry y="30" width="180" height="30" as="geometry" />
        </mxCell>
        <mxCell id="mnUXyzlYg-dJGexJbT2p-116" value="PK,FK1" style="shape=partialRectangle;connectable=0;fillColor=none;top=0;left=0;bottom=0;right=0;fontStyle=1;overflow=hidden;html=1;whiteSpace=wrap;" vertex="1" parent="mnUXyzlYg-dJGexJbT2p-115">
          <mxGeometry width="60" height="30" as="geometry">
            <mxRectangle width="60" height="30" as="alternateBounds" />
          </mxGeometry>
        </mxCell>
        <mxCell id="mnUXyzlYg-dJGexJbT2p-117" value="codigo_organizac" style="shape=partialRectangle;connectable=0;fillColor=none;top=0;left=0;bottom=0;right=0;align=left;spacingLeft=6;fontStyle=5;overflow=hidden;html=1;whiteSpace=wrap;" vertex="1" parent="mnUXyzlYg-dJGexJbT2p-115">
          <mxGeometry x="60" width="120" height="30" as="geometry">
            <mxRectangle width="120" height="30" as="alternateBounds" />
          </mxGeometry>
        </mxCell>
        <mxCell id="mnUXyzlYg-dJGexJbT2p-118" value="" style="shape=tableRow;horizontal=0;startSize=0;swimlaneHead=0;swimlaneBody=0;fillColor=none;collapsible=0;dropTarget=0;points=[[0,0.5],[1,0.5]];portConstraint=eastwest;top=0;left=0;right=0;bottom=1;html=1;" vertex="1" parent="mnUXyzlYg-dJGexJbT2p-114">
          <mxGeometry y="60" width="180" height="30" as="geometry" />
        </mxCell>
        <mxCell id="mnUXyzlYg-dJGexJbT2p-119" value="PK,FK2" style="shape=partialRectangle;connectable=0;fillColor=none;top=0;left=0;bottom=0;right=0;fontStyle=1;overflow=hidden;html=1;whiteSpace=wrap;" vertex="1" parent="mnUXyzlYg-dJGexJbT2p-118">
          <mxGeometry width="60" height="30" as="geometry">
            <mxRectangle width="60" height="30" as="alternateBounds" />
          </mxGeometry>
        </mxCell>
        <mxCell id="mnUXyzlYg-dJGexJbT2p-120" value="nombre_lider_pol" style="shape=partialRectangle;connectable=0;fillColor=none;top=0;left=0;bottom=0;right=0;align=left;spacingLeft=6;fontStyle=5;overflow=hidden;html=1;whiteSpace=wrap;" vertex="1" parent="mnUXyzlYg-dJGexJbT2p-118">
          <mxGeometry x="60" width="120" height="30" as="geometry">
            <mxRectangle width="120" height="30" as="alternateBounds" />
          </mxGeometry>
        </mxCell>
        <mxCell id="mnUXyzlYg-dJGexJbT2p-121" value="" style="shape=tableRow;horizontal=0;startSize=0;swimlaneHead=0;swimlaneBody=0;fillColor=none;collapsible=0;dropTarget=0;points=[[0,0.5],[1,0.5]];portConstraint=eastwest;top=0;left=0;right=0;bottom=0;html=1;" vertex="1" parent="mnUXyzlYg-dJGexJbT2p-114">
          <mxGeometry y="90" width="180" height="30" as="geometry" />
        </mxCell>
        <mxCell id="mnUXyzlYg-dJGexJbT2p-122" value="" style="shape=partialRectangle;connectable=0;fillColor=none;top=0;left=0;bottom=0;right=0;editable=1;overflow=hidden;html=1;whiteSpace=wrap;" vertex="1" parent="mnUXyzlYg-dJGexJbT2p-121">
          <mxGeometry width="60" height="30" as="geometry">
            <mxRectangle width="60" height="30" as="alternateBounds" />
          </mxGeometry>
        </mxCell>
        <mxCell id="mnUXyzlYg-dJGexJbT2p-123" value="dialogo" style="shape=partialRectangle;connectable=0;fillColor=none;top=0;left=0;bottom=0;right=0;align=left;spacingLeft=6;overflow=hidden;html=1;whiteSpace=wrap;" vertex="1" parent="mnUXyzlYg-dJGexJbT2p-121">
          <mxGeometry x="60" width="120" height="30" as="geometry">
            <mxRectangle width="120" height="30" as="alternateBounds" />
          </mxGeometry>
        </mxCell>
        <mxCell id="mnUXyzlYg-dJGexJbT2p-127" value="" style="endArrow=classic;html=1;rounded=0;exitX=0;exitY=0.5;exitDx=0;exitDy=0;entryX=0;entryY=0.5;entryDx=0;entryDy=0;" edge="1" parent="1" source="mnUXyzlYg-dJGexJbT2p-77" target="mnUXyzlYg-dJGexJbT2p-118">
          <mxGeometry width="50" height="50" relative="1" as="geometry">
            <mxPoint x="613" y="121" as="sourcePoint" />
            <mxPoint x="663" y="71" as="targetPoint" />
            <Array as="points">
              <mxPoint x="350" y="239" />
              <mxPoint x="350" y="109" />
            </Array>
          </mxGeometry>
        </mxCell>
        <mxCell id="mnUXyzlYg-dJGexJbT2p-128" value="" style="endArrow=classic;html=1;rounded=0;exitX=0;exitY=0.5;exitDx=0;exitDy=0;entryX=0;entryY=0.5;entryDx=0;entryDy=0;" edge="1" parent="1" source="mnUXyzlYg-dJGexJbT2p-95" target="mnUXyzlYg-dJGexJbT2p-115">
          <mxGeometry width="50" height="50" relative="1" as="geometry">
            <mxPoint x="536" y="-16" as="sourcePoint" />
            <mxPoint x="586" y="-66" as="targetPoint" />
            <Array as="points">
              <mxPoint x="350" y="-171" />
              <mxPoint x="350" y="79" />
            </Array>
          </mxGeometry>
        </mxCell>
        <mxCell id="mnUXyzlYg-dJGexJbT2p-129" value="" style="endArrow=classic;html=1;rounded=0;entryX=1;entryY=0.5;entryDx=0;entryDy=0;exitX=0;exitY=0.5;exitDx=0;exitDy=0;" edge="1" parent="1" source="HRbyK_xEVIvlZvp6VBce-185" target="mnUXyzlYg-dJGexJbT2p-41">
          <mxGeometry width="50" height="50" relative="1" as="geometry">
            <mxPoint x="376" y="392" as="sourcePoint" />
            <mxPoint x="426" y="342" as="targetPoint" />
            <Array as="points">
              <mxPoint x="350" y="399" />
              <mxPoint x="350" y="299" />
            </Array>
          </mxGeometry>
        </mxCell>
        <mxCell id="mnUXyzlYg-dJGexJbT2p-131" value="JEFE MILITAR" style="whiteSpace=wrap;html=1;align=center;" vertex="1" parent="1">
          <mxGeometry x="-415" y="770" width="100" height="40" as="geometry" />
        </mxCell>
        <mxCell id="mnUXyzlYg-dJGexJbT2p-132" value="dirigir" style="shape=rhombus;perimeter=rhombusPerimeter;whiteSpace=wrap;html=1;align=center;" vertex="1" parent="1">
          <mxGeometry x="-425" y="980" width="120" height="60" as="geometry" />
        </mxCell>
        <mxCell id="mnUXyzlYg-dJGexJbT2p-133" value="" style="endArrow=none;html=1;rounded=0;entryX=0;entryY=0.5;entryDx=0;entryDy=0;exitX=1;exitY=0.5;exitDx=0;exitDy=0;" edge="1" parent="1" source="mnUXyzlYg-dJGexJbT2p-132" target="mnUXyzlYg-dJGexJbT2p-4">
          <mxGeometry width="50" height="50" relative="1" as="geometry">
            <mxPoint x="-298" y="1010" as="sourcePoint" />
            <mxPoint x="455" y="987" as="targetPoint" />
          </mxGeometry>
        </mxCell>
        <mxCell id="mnUXyzlYg-dJGexJbT2p-134" value="" style="endArrow=classic;html=1;rounded=0;exitX=0.5;exitY=0;exitDx=0;exitDy=0;entryX=0.5;entryY=1;entryDx=0;entryDy=0;" edge="1" parent="1" source="mnUXyzlYg-dJGexJbT2p-132" target="mnUXyzlYg-dJGexJbT2p-131">
          <mxGeometry width="50" height="50" relative="1" as="geometry">
            <mxPoint x="-285" y="1019" as="sourcePoint" />
            <mxPoint x="-235" y="969" as="targetPoint" />
          </mxGeometry>
        </mxCell>
        <mxCell id="mnUXyzlYg-dJGexJbT2p-135" value="( 0, 1 )" style="text;html=1;align=center;verticalAlign=middle;resizable=0;points=[];autosize=1;strokeColor=none;fillColor=none;" vertex="1" parent="1">
          <mxGeometry x="452" y="1010" width="53" height="26" as="geometry" />
        </mxCell>
        <mxCell id="mnUXyzlYg-dJGexJbT2p-136" value="( 1, 3 )" style="text;html=1;align=center;verticalAlign=middle;resizable=0;points=[];autosize=1;strokeColor=none;fillColor=none;" vertex="1" parent="1">
          <mxGeometry x="-418" y="810" width="53" height="26" as="geometry" />
        </mxCell>
        <mxCell id="mnUXyzlYg-dJGexJbT2p-137" value="1 : N" style="text;html=1;align=center;verticalAlign=middle;resizable=0;points=[];autosize=1;strokeColor=none;fillColor=none;" vertex="1" parent="1">
          <mxGeometry x="-386.5" y="1040" width="43" height="26" as="geometry" />
        </mxCell>
        <mxCell id="mnUXyzlYg-dJGexJbT2p-138" value="Jefes_militares" style="shape=table;startSize=30;container=1;collapsible=1;childLayout=tableLayout;fixedRows=1;rowLines=0;fontStyle=1;align=center;resizeLast=1;html=1;" vertex="1" parent="1">
          <mxGeometry x="150" y="34" width="180" height="150" as="geometry" />
        </mxCell>
        <mxCell id="mnUXyzlYg-dJGexJbT2p-139" value="" style="shape=tableRow;horizontal=0;startSize=0;swimlaneHead=0;swimlaneBody=0;fillColor=none;collapsible=0;dropTarget=0;points=[[0,0.5],[1,0.5]];portConstraint=eastwest;top=0;left=0;right=0;bottom=1;" vertex="1" parent="mnUXyzlYg-dJGexJbT2p-138">
          <mxGeometry y="30" width="180" height="30" as="geometry" />
        </mxCell>
        <mxCell id="mnUXyzlYg-dJGexJbT2p-140" value="PK" style="shape=partialRectangle;connectable=0;fillColor=none;top=0;left=0;bottom=0;right=0;fontStyle=1;overflow=hidden;whiteSpace=wrap;html=1;" vertex="1" parent="mnUXyzlYg-dJGexJbT2p-139">
          <mxGeometry width="30" height="30" as="geometry">
            <mxRectangle width="30" height="30" as="alternateBounds" />
          </mxGeometry>
        </mxCell>
        <mxCell id="mnUXyzlYg-dJGexJbT2p-141" value="codigo" style="shape=partialRectangle;connectable=0;fillColor=none;top=0;left=0;bottom=0;right=0;align=left;spacingLeft=6;fontStyle=5;overflow=hidden;whiteSpace=wrap;html=1;" vertex="1" parent="mnUXyzlYg-dJGexJbT2p-139">
          <mxGeometry x="30" width="150" height="30" as="geometry">
            <mxRectangle width="150" height="30" as="alternateBounds" />
          </mxGeometry>
        </mxCell>
        <mxCell id="mnUXyzlYg-dJGexJbT2p-152" value="" style="shape=tableRow;horizontal=0;startSize=0;swimlaneHead=0;swimlaneBody=0;fillColor=none;collapsible=0;dropTarget=0;points=[[0,0.5],[1,0.5]];portConstraint=eastwest;top=0;left=0;right=0;bottom=0;" vertex="1" parent="mnUXyzlYg-dJGexJbT2p-138">
          <mxGeometry y="60" width="180" height="30" as="geometry" />
        </mxCell>
        <mxCell id="mnUXyzlYg-dJGexJbT2p-153" value="FK" style="shape=partialRectangle;connectable=0;fillColor=none;top=0;left=0;bottom=0;right=0;fontStyle=0;overflow=hidden;whiteSpace=wrap;html=1;" vertex="1" parent="mnUXyzlYg-dJGexJbT2p-152">
          <mxGeometry width="30" height="30" as="geometry">
            <mxRectangle width="30" height="30" as="alternateBounds" />
          </mxGeometry>
        </mxCell>
        <mxCell id="mnUXyzlYg-dJGexJbT2p-154" value="nombre_lider_politico" style="shape=partialRectangle;connectable=0;fillColor=none;top=0;left=0;bottom=0;right=0;align=left;spacingLeft=6;fontStyle=0;overflow=hidden;whiteSpace=wrap;html=1;" vertex="1" parent="mnUXyzlYg-dJGexJbT2p-152">
          <mxGeometry x="30" width="150" height="30" as="geometry">
            <mxRectangle width="150" height="30" as="alternateBounds" />
          </mxGeometry>
        </mxCell>
        <mxCell id="mnUXyzlYg-dJGexJbT2p-156" value="" style="shape=tableRow;horizontal=0;startSize=0;swimlaneHead=0;swimlaneBody=0;fillColor=none;collapsible=0;dropTarget=0;points=[[0,0.5],[1,0.5]];portConstraint=eastwest;top=0;left=0;right=0;bottom=0;" vertex="1" parent="mnUXyzlYg-dJGexJbT2p-138">
          <mxGeometry y="90" width="180" height="30" as="geometry" />
        </mxCell>
        <mxCell id="mnUXyzlYg-dJGexJbT2p-157" value="FK" style="shape=partialRectangle;connectable=0;fillColor=none;top=0;left=0;bottom=0;right=0;fontStyle=0;overflow=hidden;whiteSpace=wrap;html=1;" vertex="1" parent="mnUXyzlYg-dJGexJbT2p-156">
          <mxGeometry width="30" height="30" as="geometry">
            <mxRectangle width="30" height="30" as="alternateBounds" />
          </mxGeometry>
        </mxCell>
        <mxCell id="mnUXyzlYg-dJGexJbT2p-158" value="id_division" style="shape=partialRectangle;connectable=0;fillColor=none;top=0;left=0;bottom=0;right=0;align=left;spacingLeft=6;fontStyle=0;overflow=hidden;whiteSpace=wrap;html=1;" vertex="1" parent="mnUXyzlYg-dJGexJbT2p-156">
          <mxGeometry x="30" width="150" height="30" as="geometry">
            <mxRectangle width="150" height="30" as="alternateBounds" />
          </mxGeometry>
        </mxCell>
        <mxCell id="mnUXyzlYg-dJGexJbT2p-142" value="" style="shape=tableRow;horizontal=0;startSize=0;swimlaneHead=0;swimlaneBody=0;fillColor=none;collapsible=0;dropTarget=0;points=[[0,0.5],[1,0.5]];portConstraint=eastwest;top=0;left=0;right=0;bottom=0;" vertex="1" parent="mnUXyzlYg-dJGexJbT2p-138">
          <mxGeometry y="120" width="180" height="30" as="geometry" />
        </mxCell>
        <mxCell id="mnUXyzlYg-dJGexJbT2p-143" value="" style="shape=partialRectangle;connectable=0;fillColor=none;top=0;left=0;bottom=0;right=0;editable=1;overflow=hidden;whiteSpace=wrap;html=1;" vertex="1" parent="mnUXyzlYg-dJGexJbT2p-142">
          <mxGeometry width="30" height="30" as="geometry">
            <mxRectangle width="30" height="30" as="alternateBounds" />
          </mxGeometry>
        </mxCell>
        <mxCell id="mnUXyzlYg-dJGexJbT2p-144" value="rango" style="shape=partialRectangle;connectable=0;fillColor=none;top=0;left=0;bottom=0;right=0;align=left;spacingLeft=6;overflow=hidden;whiteSpace=wrap;html=1;" vertex="1" parent="mnUXyzlYg-dJGexJbT2p-142">
          <mxGeometry x="30" width="150" height="30" as="geometry">
            <mxRectangle width="150" height="30" as="alternateBounds" />
          </mxGeometry>
        </mxCell>
        <mxCell id="mnUXyzlYg-dJGexJbT2p-159" value="obedecer" style="shape=rhombus;perimeter=rhombusPerimeter;whiteSpace=wrap;html=1;align=center;" vertex="1" parent="1">
          <mxGeometry x="-425" y="540" width="120" height="60" as="geometry" />
        </mxCell>
        <mxCell id="mnUXyzlYg-dJGexJbT2p-160" value="" style="endArrow=classic;html=1;rounded=0;exitX=0.5;exitY=1;exitDx=0;exitDy=0;entryX=0.5;entryY=0;entryDx=0;entryDy=0;" edge="1" parent="1" source="mnUXyzlYg-dJGexJbT2p-159" target="mnUXyzlYg-dJGexJbT2p-131">
          <mxGeometry width="50" height="50" relative="1" as="geometry">
            <mxPoint x="491" y="855" as="sourcePoint" />
            <mxPoint x="541" y="805" as="targetPoint" />
          </mxGeometry>
        </mxCell>
        <mxCell id="mnUXyzlYg-dJGexJbT2p-161" value="" style="endArrow=none;html=1;rounded=0;exitX=1;exitY=0.5;exitDx=0;exitDy=0;entryX=0;entryY=0.5;entryDx=0;entryDy=0;" edge="1" parent="1" source="mnUXyzlYg-dJGexJbT2p-159" target="mnUXyzlYg-dJGexJbT2p-7">
          <mxGeometry width="50" height="50" relative="1" as="geometry">
            <mxPoint x="491" y="855" as="sourcePoint" />
            <mxPoint x="541" y="805" as="targetPoint" />
          </mxGeometry>
        </mxCell>
        <mxCell id="mnUXyzlYg-dJGexJbT2p-162" value="" style="endArrow=classic;html=1;rounded=0;entryX=1;entryY=0.5;entryDx=0;entryDy=0;exitX=0;exitY=0.5;exitDx=0;exitDy=0;" edge="1" parent="1" source="mnUXyzlYg-dJGexJbT2p-77" target="mnUXyzlYg-dJGexJbT2p-152">
          <mxGeometry width="50" height="50" relative="1" as="geometry">
            <mxPoint x="440" y="217" as="sourcePoint" />
            <mxPoint x="490" y="167" as="targetPoint" />
            <Array as="points">
              <mxPoint x="350" y="239" />
              <mxPoint x="350" y="109" />
            </Array>
          </mxGeometry>
        </mxCell>
        <mxCell id="mnUXyzlYg-dJGexJbT2p-163" value="" style="endArrow=classic;html=1;rounded=0;exitX=0;exitY=0.5;exitDx=0;exitDy=0;entryX=0;entryY=0.5;entryDx=0;entryDy=0;" edge="1" parent="1" source="mnUXyzlYg-dJGexJbT2p-19" target="mnUXyzlYg-dJGexJbT2p-156">
          <mxGeometry width="50" height="50" relative="1" as="geometry">
            <mxPoint x="442" y="227" as="sourcePoint" />
            <mxPoint x="492" y="177" as="targetPoint" />
            <Array as="points">
              <mxPoint x="130" y="269" />
              <mxPoint x="130" y="139" />
            </Array>
          </mxGeometry>
        </mxCell>
        <mxCell id="mnUXyzlYg-dJGexJbT2p-178" value="( 1, N )" style="text;html=1;align=center;verticalAlign=middle;resizable=0;points=[];autosize=1;strokeColor=none;fillColor=none;" vertex="1" parent="1">
          <mxGeometry x="-420" y="744" width="55" height="26" as="geometry" />
        </mxCell>
        <mxCell id="mnUXyzlYg-dJGexJbT2p-179" value="( 1, 1 )" style="text;html=1;align=center;verticalAlign=middle;resizable=0;points=[];autosize=1;strokeColor=none;fillColor=none;" vertex="1" parent="1">
          <mxGeometry x="452" y="544" width="53" height="26" as="geometry" />
        </mxCell>
        <mxCell id="mnUXyzlYg-dJGexJbT2p-180" value="1 : N" style="text;html=1;align=center;verticalAlign=middle;resizable=0;points=[];autosize=1;strokeColor=none;fillColor=none;" vertex="1" parent="1">
          <mxGeometry x="-386.5" y="514" width="43" height="26" as="geometry" />
        </mxCell>
        <mxCell id="mnUXyzlYg-dJGexJbT2p-181" value="dialogar" style="shape=rhombus;perimeter=rhombusPerimeter;whiteSpace=wrap;html=1;align=center;" vertex="1" parent="1">
          <mxGeometry x="725" y="540" width="120" height="60" as="geometry" />
        </mxCell>
        <mxCell id="mnUXyzlYg-dJGexJbT2p-182" value="Grup_arm_Tip_arm_Trafican" style="shape=table;startSize=30;container=1;collapsible=1;childLayout=tableLayout;fixedRows=1;rowLines=0;fontStyle=1;align=center;resizeLast=1;html=1;whiteSpace=wrap;" vertex="1" parent="1">
          <mxGeometry x="-70" y="354" width="180" height="120" as="geometry" />
        </mxCell>
        <mxCell id="mnUXyzlYg-dJGexJbT2p-183" value="" style="shape=tableRow;horizontal=0;startSize=0;swimlaneHead=0;swimlaneBody=0;fillColor=none;collapsible=0;dropTarget=0;points=[[0,0.5],[1,0.5]];portConstraint=eastwest;top=0;left=0;right=0;bottom=0;html=1;" vertex="1" parent="mnUXyzlYg-dJGexJbT2p-182">
          <mxGeometry y="30" width="180" height="30" as="geometry" />
        </mxCell>
        <mxCell id="mnUXyzlYg-dJGexJbT2p-184" value="PK,FK1" style="shape=partialRectangle;connectable=0;fillColor=none;top=0;left=0;bottom=0;right=0;fontStyle=1;overflow=hidden;html=1;whiteSpace=wrap;" vertex="1" parent="mnUXyzlYg-dJGexJbT2p-183">
          <mxGeometry width="60" height="30" as="geometry">
            <mxRectangle width="60" height="30" as="alternateBounds" />
          </mxGeometry>
        </mxCell>
        <mxCell id="mnUXyzlYg-dJGexJbT2p-185" value="nombre_tip_arma" style="shape=partialRectangle;connectable=0;fillColor=none;top=0;left=0;bottom=0;right=0;align=left;spacingLeft=6;fontStyle=5;overflow=hidden;html=1;whiteSpace=wrap;" vertex="1" parent="mnUXyzlYg-dJGexJbT2p-183">
          <mxGeometry x="60" width="120" height="30" as="geometry">
            <mxRectangle width="120" height="30" as="alternateBounds" />
          </mxGeometry>
        </mxCell>
        <mxCell id="mnUXyzlYg-dJGexJbT2p-229" value="" style="shape=tableRow;horizontal=0;startSize=0;swimlaneHead=0;swimlaneBody=0;fillColor=none;collapsible=0;dropTarget=0;points=[[0,0.5],[1,0.5]];portConstraint=eastwest;top=0;left=0;right=0;bottom=0;html=1;" vertex="1" parent="mnUXyzlYg-dJGexJbT2p-182">
          <mxGeometry y="60" width="180" height="30" as="geometry" />
        </mxCell>
        <mxCell id="mnUXyzlYg-dJGexJbT2p-230" value="PK,FK2" style="shape=partialRectangle;connectable=0;fillColor=none;top=0;left=0;bottom=0;right=0;fontStyle=1;overflow=hidden;html=1;whiteSpace=wrap;" vertex="1" parent="mnUXyzlYg-dJGexJbT2p-229">
          <mxGeometry width="60" height="30" as="geometry">
            <mxRectangle width="60" height="30" as="alternateBounds" />
          </mxGeometry>
        </mxCell>
        <mxCell id="mnUXyzlYg-dJGexJbT2p-231" value="nombre_traficant" style="shape=partialRectangle;connectable=0;fillColor=none;top=0;left=0;bottom=0;right=0;align=left;spacingLeft=6;fontStyle=5;overflow=hidden;html=1;whiteSpace=wrap;" vertex="1" parent="mnUXyzlYg-dJGexJbT2p-229">
          <mxGeometry x="60" width="120" height="30" as="geometry">
            <mxRectangle width="120" height="30" as="alternateBounds" />
          </mxGeometry>
        </mxCell>
        <mxCell id="mnUXyzlYg-dJGexJbT2p-186" value="" style="shape=tableRow;horizontal=0;startSize=0;swimlaneHead=0;swimlaneBody=0;fillColor=none;collapsible=0;dropTarget=0;points=[[0,0.5],[1,0.5]];portConstraint=eastwest;top=0;left=0;right=0;bottom=1;html=1;" vertex="1" parent="mnUXyzlYg-dJGexJbT2p-182">
          <mxGeometry y="90" width="180" height="30" as="geometry" />
        </mxCell>
        <mxCell id="mnUXyzlYg-dJGexJbT2p-187" value="PK,FK3" style="shape=partialRectangle;connectable=0;fillColor=none;top=0;left=0;bottom=0;right=0;fontStyle=1;overflow=hidden;html=1;whiteSpace=wrap;" vertex="1" parent="mnUXyzlYg-dJGexJbT2p-186">
          <mxGeometry width="60" height="30" as="geometry">
            <mxRectangle width="60" height="30" as="alternateBounds" />
          </mxGeometry>
        </mxCell>
        <mxCell id="mnUXyzlYg-dJGexJbT2p-188" value="codigo_grupo_ar" style="shape=partialRectangle;connectable=0;fillColor=none;top=0;left=0;bottom=0;right=0;align=left;spacingLeft=6;fontStyle=5;overflow=hidden;html=1;whiteSpace=wrap;" vertex="1" parent="mnUXyzlYg-dJGexJbT2p-186">
          <mxGeometry x="60" width="120" height="30" as="geometry">
            <mxRectangle width="120" height="30" as="alternateBounds" />
          </mxGeometry>
        </mxCell>
        <mxCell id="mnUXyzlYg-dJGexJbT2p-195" value="Tipos_armas" style="shape=table;startSize=30;container=1;collapsible=1;childLayout=tableLayout;fixedRows=1;rowLines=0;fontStyle=1;align=center;resizeLast=1;html=1;" vertex="1" parent="1">
          <mxGeometry x="-70" y="124" width="180" height="90" as="geometry" />
        </mxCell>
        <mxCell id="mnUXyzlYg-dJGexJbT2p-196" value="" style="shape=tableRow;horizontal=0;startSize=0;swimlaneHead=0;swimlaneBody=0;fillColor=none;collapsible=0;dropTarget=0;points=[[0,0.5],[1,0.5]];portConstraint=eastwest;top=0;left=0;right=0;bottom=1;" vertex="1" parent="mnUXyzlYg-dJGexJbT2p-195">
          <mxGeometry y="30" width="180" height="30" as="geometry" />
        </mxCell>
        <mxCell id="mnUXyzlYg-dJGexJbT2p-197" value="PK" style="shape=partialRectangle;connectable=0;fillColor=none;top=0;left=0;bottom=0;right=0;fontStyle=1;overflow=hidden;whiteSpace=wrap;html=1;" vertex="1" parent="mnUXyzlYg-dJGexJbT2p-196">
          <mxGeometry width="30" height="30" as="geometry">
            <mxRectangle width="30" height="30" as="alternateBounds" />
          </mxGeometry>
        </mxCell>
        <mxCell id="mnUXyzlYg-dJGexJbT2p-198" value="nombre" style="shape=partialRectangle;connectable=0;fillColor=none;top=0;left=0;bottom=0;right=0;align=left;spacingLeft=6;fontStyle=5;overflow=hidden;whiteSpace=wrap;html=1;" vertex="1" parent="mnUXyzlYg-dJGexJbT2p-196">
          <mxGeometry x="30" width="150" height="30" as="geometry">
            <mxRectangle width="150" height="30" as="alternateBounds" />
          </mxGeometry>
        </mxCell>
        <mxCell id="mnUXyzlYg-dJGexJbT2p-199" value="" style="shape=tableRow;horizontal=0;startSize=0;swimlaneHead=0;swimlaneBody=0;fillColor=none;collapsible=0;dropTarget=0;points=[[0,0.5],[1,0.5]];portConstraint=eastwest;top=0;left=0;right=0;bottom=0;" vertex="1" parent="mnUXyzlYg-dJGexJbT2p-195">
          <mxGeometry y="60" width="180" height="30" as="geometry" />
        </mxCell>
        <mxCell id="mnUXyzlYg-dJGexJbT2p-200" value="" style="shape=partialRectangle;connectable=0;fillColor=none;top=0;left=0;bottom=0;right=0;editable=1;overflow=hidden;whiteSpace=wrap;html=1;" vertex="1" parent="mnUXyzlYg-dJGexJbT2p-199">
          <mxGeometry width="30" height="30" as="geometry">
            <mxRectangle width="30" height="30" as="alternateBounds" />
          </mxGeometry>
        </mxCell>
        <mxCell id="mnUXyzlYg-dJGexJbT2p-201" value="capacidad_destructiva" style="shape=partialRectangle;connectable=0;fillColor=none;top=0;left=0;bottom=0;right=0;align=left;spacingLeft=6;overflow=hidden;whiteSpace=wrap;html=1;" vertex="1" parent="mnUXyzlYg-dJGexJbT2p-199">
          <mxGeometry x="30" width="150" height="30" as="geometry">
            <mxRectangle width="150" height="30" as="alternateBounds" />
          </mxGeometry>
        </mxCell>
        <mxCell id="mnUXyzlYg-dJGexJbT2p-208" value="Traficantes" style="shape=table;startSize=30;container=1;collapsible=1;childLayout=tableLayout;fixedRows=1;rowLines=0;fontStyle=1;align=center;resizeLast=1;html=1;" vertex="1" parent="1">
          <mxGeometry x="-70" y="254" width="180" height="60" as="geometry" />
        </mxCell>
        <mxCell id="mnUXyzlYg-dJGexJbT2p-209" value="" style="shape=tableRow;horizontal=0;startSize=0;swimlaneHead=0;swimlaneBody=0;fillColor=none;collapsible=0;dropTarget=0;points=[[0,0.5],[1,0.5]];portConstraint=eastwest;top=0;left=0;right=0;bottom=1;" vertex="1" parent="mnUXyzlYg-dJGexJbT2p-208">
          <mxGeometry y="30" width="180" height="30" as="geometry" />
        </mxCell>
        <mxCell id="mnUXyzlYg-dJGexJbT2p-210" value="PK" style="shape=partialRectangle;connectable=0;fillColor=none;top=0;left=0;bottom=0;right=0;fontStyle=1;overflow=hidden;whiteSpace=wrap;html=1;" vertex="1" parent="mnUXyzlYg-dJGexJbT2p-209">
          <mxGeometry width="30" height="30" as="geometry">
            <mxRectangle width="30" height="30" as="alternateBounds" />
          </mxGeometry>
        </mxCell>
        <mxCell id="mnUXyzlYg-dJGexJbT2p-211" value="nombre" style="shape=partialRectangle;connectable=0;fillColor=none;top=0;left=0;bottom=0;right=0;align=left;spacingLeft=6;fontStyle=5;overflow=hidden;whiteSpace=wrap;html=1;" vertex="1" parent="mnUXyzlYg-dJGexJbT2p-209">
          <mxGeometry x="30" width="150" height="30" as="geometry">
            <mxRectangle width="150" height="30" as="alternateBounds" />
          </mxGeometry>
        </mxCell>
        <mxCell id="mnUXyzlYg-dJGexJbT2p-233" value="" style="endArrow=classic;html=1;rounded=0;exitX=0;exitY=0.5;exitDx=0;exitDy=0;entryX=1;entryY=0.5;entryDx=0;entryDy=0;" edge="1" parent="1" source="HRbyK_xEVIvlZvp6VBce-185" target="mnUXyzlYg-dJGexJbT2p-186">
          <mxGeometry width="50" height="50" relative="1" as="geometry">
            <mxPoint x="61" y="423" as="sourcePoint" />
            <mxPoint x="111" y="373" as="targetPoint" />
            <Array as="points">
              <mxPoint x="350" y="399" />
              <mxPoint x="350" y="484" />
              <mxPoint x="130" y="484" />
              <mxPoint x="130" y="459" />
            </Array>
          </mxGeometry>
        </mxCell>
        <mxCell id="mnUXyzlYg-dJGexJbT2p-248" value="" style="endArrow=classic;html=1;rounded=0;exitX=0;exitY=0.5;exitDx=0;exitDy=0;entryX=0;entryY=0.5;entryDx=0;entryDy=0;" edge="1" parent="1" source="mnUXyzlYg-dJGexJbT2p-196" target="mnUXyzlYg-dJGexJbT2p-183">
          <mxGeometry width="50" height="50" relative="1" as="geometry">
            <mxPoint x="116" y="334" as="sourcePoint" />
            <mxPoint x="-109" y="407" as="targetPoint" />
            <Array as="points">
              <mxPoint x="-90" y="169" />
              <mxPoint x="-90" y="399" />
            </Array>
          </mxGeometry>
        </mxCell>
        <mxCell id="mnUXyzlYg-dJGexJbT2p-249" value="" style="endArrow=classic;html=1;rounded=0;exitX=1;exitY=0.5;exitDx=0;exitDy=0;entryX=1;entryY=0.5;entryDx=0;entryDy=0;" edge="1" parent="1" source="mnUXyzlYg-dJGexJbT2p-209" target="mnUXyzlYg-dJGexJbT2p-229">
          <mxGeometry width="50" height="50" relative="1" as="geometry">
            <mxPoint x="116" y="334" as="sourcePoint" />
            <mxPoint x="166" y="284" as="targetPoint" />
            <Array as="points">
              <mxPoint x="130" y="299" />
              <mxPoint x="130" y="429" />
            </Array>
          </mxGeometry>
        </mxCell>
        <mxCell id="mnUXyzlYg-dJGexJbT2p-264" value="Tipos_armas_Traficantes" style="shape=table;startSize=30;container=1;collapsible=1;childLayout=tableLayout;fixedRows=1;rowLines=0;fontStyle=1;align=center;resizeLast=1;html=1;whiteSpace=wrap;" vertex="1" parent="1">
          <mxGeometry x="-70" y="-6" width="180" height="90" as="geometry" />
        </mxCell>
        <mxCell id="mnUXyzlYg-dJGexJbT2p-265" value="" style="shape=tableRow;horizontal=0;startSize=0;swimlaneHead=0;swimlaneBody=0;fillColor=none;collapsible=0;dropTarget=0;points=[[0,0.5],[1,0.5]];portConstraint=eastwest;top=0;left=0;right=0;bottom=0;html=1;" vertex="1" parent="mnUXyzlYg-dJGexJbT2p-264">
          <mxGeometry y="30" width="180" height="30" as="geometry" />
        </mxCell>
        <mxCell id="mnUXyzlYg-dJGexJbT2p-266" value="PK,FK1" style="shape=partialRectangle;connectable=0;fillColor=none;top=0;left=0;bottom=0;right=0;fontStyle=1;overflow=hidden;html=1;whiteSpace=wrap;" vertex="1" parent="mnUXyzlYg-dJGexJbT2p-265">
          <mxGeometry width="60" height="30" as="geometry">
            <mxRectangle width="60" height="30" as="alternateBounds" />
          </mxGeometry>
        </mxCell>
        <mxCell id="mnUXyzlYg-dJGexJbT2p-267" value="nombre_traficant" style="shape=partialRectangle;connectable=0;fillColor=none;top=0;left=0;bottom=0;right=0;align=left;spacingLeft=6;fontStyle=5;overflow=hidden;html=1;whiteSpace=wrap;" vertex="1" parent="mnUXyzlYg-dJGexJbT2p-265">
          <mxGeometry x="60" width="120" height="30" as="geometry">
            <mxRectangle width="120" height="30" as="alternateBounds" />
          </mxGeometry>
        </mxCell>
        <mxCell id="mnUXyzlYg-dJGexJbT2p-268" value="" style="shape=tableRow;horizontal=0;startSize=0;swimlaneHead=0;swimlaneBody=0;fillColor=none;collapsible=0;dropTarget=0;points=[[0,0.5],[1,0.5]];portConstraint=eastwest;top=0;left=0;right=0;bottom=1;html=1;" vertex="1" parent="mnUXyzlYg-dJGexJbT2p-264">
          <mxGeometry y="60" width="180" height="30" as="geometry" />
        </mxCell>
        <mxCell id="mnUXyzlYg-dJGexJbT2p-269" value="PK,FK2" style="shape=partialRectangle;connectable=0;fillColor=none;top=0;left=0;bottom=0;right=0;fontStyle=1;overflow=hidden;html=1;whiteSpace=wrap;" vertex="1" parent="mnUXyzlYg-dJGexJbT2p-268">
          <mxGeometry width="60" height="30" as="geometry">
            <mxRectangle width="60" height="30" as="alternateBounds" />
          </mxGeometry>
        </mxCell>
        <mxCell id="mnUXyzlYg-dJGexJbT2p-270" value="nombre_tip_arma" style="shape=partialRectangle;connectable=0;fillColor=none;top=0;left=0;bottom=0;right=0;align=left;spacingLeft=6;fontStyle=5;overflow=hidden;html=1;whiteSpace=wrap;" vertex="1" parent="mnUXyzlYg-dJGexJbT2p-268">
          <mxGeometry x="60" width="120" height="30" as="geometry">
            <mxRectangle width="120" height="30" as="alternateBounds" />
          </mxGeometry>
        </mxCell>
        <mxCell id="mnUXyzlYg-dJGexJbT2p-277" value="" style="endArrow=classic;html=1;rounded=0;exitX=0;exitY=0.5;exitDx=0;exitDy=0;entryX=0;entryY=0.5;entryDx=0;entryDy=0;" edge="1" parent="1" source="mnUXyzlYg-dJGexJbT2p-196" target="mnUXyzlYg-dJGexJbT2p-268">
          <mxGeometry width="50" height="50" relative="1" as="geometry">
            <mxPoint x="28" y="214" as="sourcePoint" />
            <mxPoint x="78" y="164" as="targetPoint" />
            <Array as="points">
              <mxPoint x="-90" y="169" />
              <mxPoint x="-90" y="69" />
            </Array>
          </mxGeometry>
        </mxCell>
        <mxCell id="mnUXyzlYg-dJGexJbT2p-278" value="" style="endArrow=classic;html=1;rounded=0;exitX=0;exitY=0.5;exitDx=0;exitDy=0;entryX=0;entryY=0.5;entryDx=0;entryDy=0;" edge="1" parent="1" source="mnUXyzlYg-dJGexJbT2p-209" target="mnUXyzlYg-dJGexJbT2p-264">
          <mxGeometry width="50" height="50" relative="1" as="geometry">
            <mxPoint x="68" y="270" as="sourcePoint" />
            <mxPoint x="118" y="220" as="targetPoint" />
            <Array as="points">
              <mxPoint x="-110" y="299" />
              <mxPoint x="-110" y="39" />
            </Array>
          </mxGeometry>
        </mxCell>
        <mxCell id="mnUXyzlYg-dJGexJbT2p-293" value="" style="endArrow=classic;html=1;rounded=0;exitX=1;exitY=0.5;exitDx=0;exitDy=0;entryX=0;entryY=0.5;entryDx=0;entryDy=0;" edge="1" parent="1" source="mnUXyzlYg-dJGexJbT2p-181" target="HRbyK_xEVIvlZvp6VBce-145">
          <mxGeometry width="50" height="50" relative="1" as="geometry">
            <mxPoint x="792" y="526" as="sourcePoint" />
            <mxPoint x="842" y="476" as="targetPoint" />
          </mxGeometry>
        </mxCell>
        <mxCell id="mnUXyzlYg-dJGexJbT2p-294" value="" style="endArrow=classic;html=1;rounded=0;entryX=1;entryY=0.5;entryDx=0;entryDy=0;exitX=0;exitY=0.5;exitDx=0;exitDy=0;" edge="1" parent="1" source="mnUXyzlYg-dJGexJbT2p-181" target="mnUXyzlYg-dJGexJbT2p-7">
          <mxGeometry width="50" height="50" relative="1" as="geometry">
            <mxPoint x="792" y="526" as="sourcePoint" />
            <mxPoint x="842" y="476" as="targetPoint" />
          </mxGeometry>
        </mxCell>
        <mxCell id="mnUXyzlYg-dJGexJbT2p-295" value="N : M" style="text;html=1;align=center;verticalAlign=middle;resizable=0;points=[];autosize=1;strokeColor=none;fillColor=none;" vertex="1" parent="1">
          <mxGeometry x="761.5" y="514" width="47" height="26" as="geometry" />
        </mxCell>
        <mxCell id="mnUXyzlYg-dJGexJbT2p-296" value="( 0, N )" style="text;html=1;align=center;verticalAlign=middle;resizable=0;points=[];autosize=1;strokeColor=none;fillColor=none;" vertex="1" parent="1">
          <mxGeometry x="910" y="570" width="55" height="26" as="geometry" />
        </mxCell>
        <mxCell id="mnUXyzlYg-dJGexJbT2p-297" value="( 0, N )" style="text;html=1;align=center;verticalAlign=middle;resizable=0;points=[];autosize=1;strokeColor=none;fillColor=none;" vertex="1" parent="1">
          <mxGeometry x="605" y="570" width="55" height="26" as="geometry" />
        </mxCell>
        <mxCell id="mnUXyzlYg-dJGexJbT2p-299" value="depende de" style="shape=rhombus;perimeter=rhombusPerimeter;whiteSpace=wrap;html=1;align=center;" vertex="1" parent="1">
          <mxGeometry x="1185" y="540" width="120" height="60" as="geometry" />
        </mxCell>
        <mxCell id="mnUXyzlYg-dJGexJbT2p-302" value="" style="endArrow=none;html=1;rounded=0;exitX=1;exitY=0.75;exitDx=0;exitDy=0;entryX=0.5;entryY=1;entryDx=0;entryDy=0;" edge="1" parent="1" source="HRbyK_xEVIvlZvp6VBce-145" target="mnUXyzlYg-dJGexJbT2p-299">
          <mxGeometry width="50" height="50" relative="1" as="geometry">
            <mxPoint x="1065" y="580" as="sourcePoint" />
            <mxPoint x="1245" y="620" as="targetPoint" />
            <Array as="points">
              <mxPoint x="1165" y="580" />
              <mxPoint x="1165" y="620" />
              <mxPoint x="1245" y="620" />
            </Array>
          </mxGeometry>
        </mxCell>
        <mxCell id="mnUXyzlYg-dJGexJbT2p-306" value="" style="endArrow=classic;html=1;rounded=0;entryX=1;entryY=0.25;entryDx=0;entryDy=0;exitX=0.5;exitY=0;exitDx=0;exitDy=0;" edge="1" parent="1" source="mnUXyzlYg-dJGexJbT2p-299" target="HRbyK_xEVIvlZvp6VBce-145">
          <mxGeometry width="50" height="50" relative="1" as="geometry">
            <mxPoint x="1184" y="589" as="sourcePoint" />
            <mxPoint x="1234" y="539" as="targetPoint" />
            <Array as="points">
              <mxPoint x="1245" y="520" />
              <mxPoint x="1165" y="520" />
              <mxPoint x="1165" y="560" />
            </Array>
          </mxGeometry>
        </mxCell>
        <mxCell id="mnUXyzlYg-dJGexJbT2p-307" value="( 0, N )" style="text;html=1;align=center;verticalAlign=middle;resizable=0;points=[];autosize=1;strokeColor=none;fillColor=none;" vertex="1" parent="1">
          <mxGeometry x="1098" y="534" width="55" height="26" as="geometry" />
        </mxCell>
        <mxCell id="mnUXyzlYg-dJGexJbT2p-308" value="( 0, 1 )" style="text;html=1;align=center;verticalAlign=middle;resizable=0;points=[];autosize=1;strokeColor=none;fillColor=none;" vertex="1" parent="1">
          <mxGeometry x="1100" y="580" width="53" height="26" as="geometry" />
        </mxCell>
        <mxCell id="mnUXyzlYg-dJGexJbT2p-309" value="1 : N" style="text;html=1;align=center;verticalAlign=middle;resizable=0;points=[];autosize=1;strokeColor=none;fillColor=none;" vertex="1" parent="1">
          <mxGeometry x="1305" y="557" width="43" height="26" as="geometry" />
        </mxCell>
      </root>
    </mxGraphModel>
  </diagram>
</mxfile>
